<svg width="384" height="216" viewBox="0 0 384 216" fill="none" xmlns="http://www.w3.org/2000/svg">
<path opacity="0.1" fill-rule="evenodd" clip-rule="evenodd" d="M159.274 170C163.276 167.095 165.88 162.379 165.88 157.06C165.88 148.24 158.72 141.08 149.9 141.08H108.94C99.9199 141.08 92.6199 133.78 92.6199 124.76C92.6199 115.74 99.9199 108.44 108.94 108.44H113.26C121.06 108.44 127.4 102.12 127.4 94.3C127.4 86.5 121.08 80.16 113.26 80.16H68.1399C61.3799 80.16 55.8799 74.68 55.8799 67.9C55.8799 61.14 61.3599 55.64 68.1399 55.64H86.9599C92.7999 55.64 97.5399 50.9 97.5399 45.06C97.5399 39.22 92.7999 34.48 86.9599 34.48H83.1599C76.1599 34.48 70.4799 28.8 70.4799 21.8C70.4799 14.8 76.1599 9.12002 83.1599 9.12002H229.78C281.24 9.12002 322.96 50.84 322.96 102.3C322.95 128.965 311.743 153.015 293.786 170H159.274Z" fill="#2A94F4"/>
<path d="M230.94 17.72C230.94 17.72 235.5 7.50002 227.4 5.04002C219.3 2.58002 218.16 2.38002 214.54 2.76002C209.7 3.24002 207.4 10.12 206.8 13.46C206.24 16.52 207 18.7 209.4 22.88C211.8 27.06 212.78 26 213.84 26.18C214.88 26.34 230.94 17.72 230.94 17.72Z" fill="#0B4870"/>
<path d="M203.02 110.92C203.02 110.92 216.16 142.38 217.1 147.08C218.04 151.78 234 185.58 234 185.58L228.36 189.34C228.36 189.34 207.66 161.44 205.82 153.18C204.88 148.96 189.38 128.3 189.38 128.3L203.02 110.92Z" fill="#FCD2B1"/>
<path d="M229.24 175.32L236.9 188.34L230.2 192.12L221.38 179.56L229.24 175.32Z" fill="#CCE9FF"/>
<path d="M141.28 123.12L155.14 130.16C155.14 130.16 148.52 142.84 141.98 145.18C135.42 147.52 98.3401 132.5 98.3401 132.5L99.4001 125.28C99.4001 125.28 128.22 130.84 136.48 134L141.28 123.12Z" fill="#FCD2B1"/>
<path d="M197.44 94.02C197.44 94.02 206.34 114.22 212.72 125.48C212.72 125.48 200.78 138.52 193.74 141.32C193.74 141.32 172.02 119.6 172.5 110.92C172.5 110.92 160.18 134.64 155.14 138.16C155.14 138.16 139.52 130.42 135.66 127.94C135.66 127.94 146.92 75.02 164.54 68.56C164.52 68.56 199.36 79.1 197.44 94.02Z" fill="#B65741"/>
<path d="M190.82 35.98C190.82 35.98 173.68 31.34 164.76 30.86C164.76 30.86 151.38 51.28 148.56 54.1C148.56 54.1 146.92 58.8 146.92 62.32C146.92 65.84 143.64 67.72 141.76 67.26C139.88 66.8 138 64.44 138.24 61.62C138.48 58.8 142 57.16 143.4 54.58C144.8 52 154.42 22.88 162.64 21.94C170.86 21 199.28 28.98 199.28 28.98L190.82 35.98Z" fill="#FCD2B1"/>
<path d="M219.34 52.2C219.34 52.2 237.54 71.24 243.18 74.06C248.82 76.88 275.12 83.92 275.12 83.92C275.12 83.92 279.58 86.98 280.98 89.32C282.38 91.66 284.98 90.72 284.98 90.72C285.92 89.08 282.64 88.6 281.92 86.96C281.22 85.32 290.38 89.08 293.42 91.9C293.42 91.9 296.94 90.26 295.54 87.9C294.14 85.56 291.78 82.74 288.26 82.04C284.74 81.34 282.4 81.34 279.8 80.16C277.22 78.98 251.74 68.56 247.98 65.54C242 60.68 227.66 45.66 227.66 45.66L219.34 52.2Z" fill="#FCD2B1"/>
<path d="M193.88 41.6C194.76 41.24 198.38 29.74 198.38 29.74C198.38 29.74 207.98 32.8 211.14 22.94C211.14 22.94 210.08 22.92 209.74 20.48C209.04 15.56 212.98 16.44 213.54 17.86C213.38 16.98 213.2 14.48 215.32 12.06C216.88 10.3 221.06 6.74003 230.28 11.48C230.28 11.48 232.8 23.62 228.04 28.56C225.62 31.06 222.54 31.24 220.08 30.82C219.24 32 218.34 33.46 218 34.72L224.16 41.58L213.94 53.9C213.94 53.9 196.5 55.48 195.98 53.9C195.46 52.34 193 41.96 193.88 41.6Z" fill="#FCD2B1"/>
<path d="M224.16 41.6L228.6 46.6C228.6 46.6 220.22 56.32 215.18 68.78C210.14 81.22 197.44 94.02 197.44 94.02C197.44 94.02 190.44 89.86 168.74 78.26C163.36 75.38 154.56 77.5 154.56 77.5C154.56 77.5 168.74 56.92 188.94 36.14L197.08 28.38L202.08 29.92C202.08 29.92 203.48 42.58 206.3 45.64C209.12 48.7 224.16 41.6 224.16 41.6Z" fill="#AD4328"/>
<path d="M237.98 186.22C239.72 187.02 241.28 187.14 242.5 186.4L243.16 186C247.28 184.04 252.14 184.68 255.64 187.6L233.98 200.76L229.4 191.8L237.98 186.22Z" fill="#AD4328"/>
<path d="M105.12 135.16L90.8198 130.24L93.2798 123.22L108.24 127.08L105.12 135.16Z" fill="#CCE9FF"/>
<path d="M91.36 132.44C89.48 132.76 88.12 133.56 87.54 134.84L87.22 135.54C84.94 139.48 80.56 141.72 76.02 141.28L86.44 118.18L95.28 122.98L91.36 132.44Z" fill="#AD4328"/>
<path d="M213.54 18.24C213.54 18.24 218.62 14.02 217.74 9.66001C217.74 9.66001 235.18 14.42 230.6 11.5C226.02 8.58001 221.52 4.08002 216.3 7.84001C209.06 13.06 213.54 18.24 213.54 18.24Z" fill="#0B4870"/>
<path d="M224.16 41.6L228.6 46.6C228.6 46.6 220.22 56.32 215.18 68.78C210.14 81.22 197.44 94.02 197.44 94.02C197.44 94.02 190.44 89.86 168.74 78.26C163.36 75.38 154.56 77.5 154.56 77.5C154.56 77.5 168.74 56.92 188.94 36.14L197.08 28.38L202.08 29.92C202.08 29.92 203.48 42.58 206.3 45.64C209.12 48.7 224.16 41.6 224.16 41.6Z" fill="#AD4328"/>
<path d="M288.98 148.6C299.473 148.6 307.98 140.093 307.98 129.6C307.98 119.107 299.473 110.6 288.98 110.6C278.486 110.6 269.98 119.107 269.98 129.6C269.98 140.093 278.486 148.6 288.98 148.6Z" fill="#AD4328"/>
<path d="M282.84 148.96C282.94 148.88 292.92 140.6 287.98 131.8C282.66 122.34 268.76 126.9 268.62 126.96L269 128.06C269.14 128.02 282.14 123.76 286.98 132.38C291.46 140.34 282.22 147.98 282.12 148.06L282.84 148.96Z" fill="#0B4870"/>
<path d="M305.96 125.9C306.32 125.9 306.68 125.9 307.06 125.88L307 124.72C302.74 124.92 299.64 123.88 297.76 121.64C294.52 117.74 295.96 111.42 295.98 111.34L294.84 111.08C294.78 111.36 293.24 118.02 296.86 122.38C298.8 124.72 301.86 125.9 305.96 125.9Z" fill="#0B4870"/>
<path d="M271.86 138.8C297.3 134.1 304.54 116.88 304.62 116.7L303.54 116.26C303.48 116.42 296.42 133.06 271.66 137.66L271.86 138.8Z" fill="#0B4870"/>
<path d="M300.46 144.42L301.62 144.38C300.78 124 279.3 112.28 279.08 112.16L278.54 113.18C278.74 113.28 299.64 124.72 300.46 144.42Z" fill="#0B4870"/>
</svg>
