<svg width="220" height="215" viewBox="0 0 220 215" fill="none" xmlns="http://www.w3.org/2000/svg">
<path d="M110.499 202.375C160.076 202.375 200.265 162.228 200.265 112.705C200.265 63.1821 160.076 23.0357 110.499 23.0357C60.9223 23.0357 20.7324 63.1821 20.7324 112.705C20.7324 162.228 60.9223 202.375 110.499 202.375Z" fill="#F5F5F5"/>
<path d="M172.548 78.1885L155.733 89.3003C151.594 92.0321 145.94 90.8877 143.205 86.7531C140.47 82.6185 141.616 76.9703 145.755 74.2385L162.57 63.1267C166.709 60.3949 172.364 61.5393 175.098 65.6739C177.833 69.8085 176.687 75.4567 172.548 78.1885Z" fill="#FACEA7"/>
<path d="M145.829 152.501C149.562 189.417 126.168 198.129 104.882 198.757C72.8036 199.717 53.1059 141.574 61.532 133.194C63.4167 131.311 66.4841 132.123 74.3557 128.431C80.4535 125.552 84.3339 122.377 85.96 121.122C92.3534 116.249 117.779 100.154 132.746 107.315C146.199 113.739 144.277 137.291 145.829 152.501Z" fill="#FACEA7"/>
<path d="M134.003 148.477C131.01 166.049 117.225 187.497 99.0424 188.051C71.6579 188.863 54.8429 139.1 62.0124 131.975C63.6015 130.388 66.2254 131.089 72.9514 127.878C78.1622 125.404 81.4513 122.709 82.8926 121.639C88.3621 117.467 110.055 103.698 122.842 109.826C134.336 115.289 136.22 135.593 134.003 148.477Z" fill="#F8BE91"/>
<path d="M69.9581 189.417C63.9342 189.417 53.5496 185.799 53.5496 174.281V113.739C53.5496 107.795 58.4647 102.922 64.4886 102.922C70.5124 102.922 75.4276 107.795 75.4276 113.739V174.281C75.4276 180.225 69.9581 189.417 69.9581 189.417Z" fill="#FACEA7"/>
<path d="M75.4274 195.804C84.0609 195.804 91.0598 186.928 91.0598 175.98C91.0598 165.031 84.0609 156.156 75.4274 156.156C66.7938 156.156 59.7949 165.031 59.7949 175.98C59.7949 186.928 66.7938 195.804 75.4274 195.804Z" fill="#FACEA7"/>
<path d="M138.955 189.417H63.3059V213.671H138.955V189.417Z" fill="#AD4328"/>
<path d="M138.955 210.09H63.3059V211.345H138.955V210.09Z" fill="#ECECEC"/>
<path d="M65.5973 174.281V113.739C65.5973 109.973 67.5559 106.688 70.5124 104.731C68.7755 103.587 66.706 102.922 64.4886 102.922C58.4647 102.922 53.5496 107.795 53.5496 113.739V174.281C53.5496 185.799 63.9342 189.417 69.9581 189.417C69.9581 189.417 70.6972 188.162 71.6581 186.242C68.2581 183.917 65.5973 180.114 65.5973 174.281Z" fill="#F8BE91"/>
<path d="M138.955 192.297H63.3059V193.552H138.955V192.297Z" fill="#ECECEC"/>
<path d="M55.1755 124.888H53.5125V124.186H55.1755C59.6841 124.186 63.3797 120.495 63.3797 115.991V110.49H53.5125V109.789H64.0819V116.028C64.1189 120.901 60.0906 124.888 55.1755 124.888Z" fill="#FCDBBF"/>
<path d="M151.003 184.692L77.6449 184.655C75.4276 184.655 73.6167 182.846 73.6167 180.631L73.6906 39.8326C73.6906 37.6176 75.5015 35.8087 77.7188 35.8087L151.077 35.8456C153.294 35.8456 155.105 37.6545 155.105 39.8695L155.031 180.668C155.031 182.883 153.22 184.692 151.003 184.692Z" fill="#2A94F4"/>
<path d="M149.007 166.012L79.6406 165.975C79.3819 165.975 79.1602 165.754 79.1602 165.495L79.2341 46.4406C79.2341 46.1822 79.4558 45.9607 79.7145 45.9607L149.081 45.9976C149.34 45.9976 149.562 46.2191 149.562 46.4775L149.488 165.532C149.525 165.791 149.303 166.012 149.007 166.012Z" fill="white"/>
<path d="M125.134 42.1583H101.629C100.89 42.1583 100.299 41.5677 100.299 40.8293C100.299 40.091 100.89 39.5004 101.629 39.5004H125.134C125.873 39.5004 126.464 40.091 126.464 40.8293C126.501 41.5677 125.873 42.1952 125.134 42.1583Z" fill="#CDEAFB"/>
<path d="M129.014 42.1952C128.275 42.1952 127.684 41.6045 127.684 40.8662C127.684 40.1279 128.275 39.5372 129.014 39.5372C129.753 39.5372 130.344 40.1279 130.344 40.8662C130.344 41.5676 129.753 42.1952 129.014 42.1952Z" fill="#CDEAFB"/>
<path d="M161.609 131.089L156.361 134.56C152.222 137.291 146.568 136.147 143.833 132.012C141.099 127.878 142.244 122.23 146.383 119.498L151.631 116.028C155.77 113.296 161.424 114.44 164.159 118.575C166.894 122.746 165.748 128.358 161.609 131.089Z" fill="#FACEA7"/>
<path d="M164.159 118.575C164.085 118.464 164.011 118.39 163.937 118.28C165.97 121.676 164.972 126.143 161.646 128.358L153.811 133.526C150.485 135.741 145.977 134.892 143.612 131.717C143.685 131.828 143.722 131.939 143.796 132.012C146.531 136.147 152.185 137.291 156.324 134.56L161.572 131.089C165.748 128.358 166.894 122.746 164.159 118.575Z" fill="#F8BE91"/>
<path d="M152.481 132.677C152.333 132.677 152.222 132.677 152.075 132.64C151.335 132.529 150.67 132.123 150.227 131.532L146.125 125.81C145.275 124.629 145.496 122.968 146.642 122.045L149.266 119.978C150.485 119.018 152.001 118.612 153.553 118.833C155.179 119.055 156.657 119.978 157.655 121.38C159.688 124.186 159.207 128.136 156.62 130.167L154.144 132.123C153.701 132.455 153.109 132.677 152.481 132.677ZM150.818 131.126C151.151 131.569 151.631 131.865 152.185 131.975C152.74 132.049 153.294 131.902 153.738 131.569L156.214 129.613C158.505 127.804 158.911 124.297 157.138 121.787C156.251 120.531 154.957 119.719 153.516 119.535C152.185 119.35 150.818 119.719 149.783 120.531L147.159 122.599C146.309 123.263 146.125 124.518 146.753 125.404L150.818 131.126Z" fill="#FCDBBF"/>
<path d="M163.42 148.255L158.283 150.766C154.255 152.722 149.34 151.061 147.381 147.037C145.422 143.013 147.085 138.103 151.114 136.147L156.251 133.637C160.279 131.68 165.194 133.341 167.153 137.365C169.148 141.389 167.485 146.299 163.42 148.255Z" fill="#FACEA7"/>
<path d="M167.189 137.365C167.152 137.254 167.078 137.181 167.041 137.07C168.445 140.355 167.041 144.232 163.789 145.819L156.176 149.511C152.924 151.098 149.006 149.806 147.27 146.668C147.306 146.779 147.343 146.853 147.38 146.963C149.339 150.987 154.254 152.685 158.282 150.692L163.419 148.182C167.485 146.299 169.148 141.389 167.189 137.365Z" fill="#F8BE91"/>
<path d="M155.438 148.662C155.216 148.662 154.994 148.625 154.772 148.551C154.107 148.366 153.553 147.923 153.22 147.296L150.227 141.684C149.599 140.503 150.005 139.026 151.151 138.325L153.738 136.775C154.957 136.036 156.362 135.852 157.729 136.258C159.17 136.664 160.39 137.661 161.129 139.026C162.607 141.795 161.72 145.302 159.133 146.816L156.694 148.255C156.325 148.551 155.881 148.662 155.438 148.662ZM156.362 136.811C155.585 136.811 154.809 137.033 154.107 137.439L151.52 138.99C150.67 139.469 150.375 140.54 150.855 141.389L153.849 147C154.07 147.443 154.477 147.776 154.957 147.886C155.438 148.034 155.955 147.96 156.362 147.702L158.801 146.262C161.055 144.933 161.831 141.832 160.538 139.396C159.872 138.177 158.838 137.328 157.581 136.959C157.138 136.848 156.731 136.811 156.362 136.811Z" fill="#FCDBBF"/>
<path d="M140.803 165.975H87.0317V143.678C87.0317 133.526 95.273 125.257 105.473 125.257H122.362C132.525 125.257 140.803 133.489 140.803 143.678V165.975Z" fill="#AD4328"/>
<path d="M159.392 112.558L153.479 115.991C148.822 118.723 142.466 117.578 139.399 113.48C136.294 109.383 137.588 103.808 142.244 101.113L148.157 97.6803C152.814 94.9485 159.17 96.0929 162.237 100.191C165.342 104.288 164.048 109.863 159.392 112.558Z" fill="#FACEA7"/>
<path d="M162.237 100.191C162.164 100.08 162.09 100.006 161.979 99.8953C164.27 103.255 163.161 107.685 159.392 109.863L150.596 114.994C146.827 117.172 141.764 116.36 139.14 113.185C139.214 113.296 139.288 113.407 139.362 113.48C142.466 117.578 148.785 118.723 153.442 115.991L159.355 112.558C164.048 109.863 165.342 104.288 162.237 100.191Z" fill="#F8BE91"/>
<path d="M147.862 114.071C147.714 114.071 147.603 114.071 147.455 114.034C146.716 113.923 146.051 113.517 145.607 112.927L141.505 107.205C140.655 106.023 140.877 104.362 142.023 103.439L144.646 101.372C145.866 100.412 147.381 100.006 148.933 100.228C150.559 100.449 152.038 101.372 153.035 102.775C155.031 105.58 154.588 109.53 152.001 111.561L149.525 113.517C149.081 113.886 148.49 114.071 147.862 114.071ZM146.199 112.521C146.531 112.964 147.012 113.259 147.566 113.37C148.12 113.444 148.675 113.296 149.118 112.964L151.594 111.007C153.885 109.198 154.292 105.691 152.518 103.181C151.631 101.926 150.338 101.113 148.859 100.929C147.529 100.744 146.199 101.113 145.127 101.926L142.503 103.993C141.653 104.657 141.468 105.913 142.097 106.799L146.199 112.521Z" fill="#FCDBBF"/>
<path d="M113.899 181.96C117.634 181.96 120.662 178.935 120.662 175.204C120.662 171.473 117.634 168.449 113.899 168.449C110.164 168.449 107.136 171.473 107.136 175.204C107.136 178.935 110.164 181.96 113.899 181.96Z" fill="#CDEAFB"/>
<path d="M123.138 126.955L122.325 106.799L106.434 106.356L105.473 129.982C105.362 132.566 107.616 132.086 110.203 131.975L118.962 131.532C121.401 131.385 123.249 129.354 123.138 126.955Z" fill="#FACBB6"/>
<path d="M107.025 111.007L122.879 120.31L122.325 106.799L107.025 111.007Z" fill="#F6B7A0"/>
<path d="M141.283 92.4382C141.283 95.7237 138.622 98.3817 135.333 98.3817C132.044 98.3817 129.383 95.7237 129.383 92.4382C129.383 89.1527 132.044 86.4947 135.333 86.4947C138.622 86.4947 141.283 89.1527 141.283 92.4382Z" fill="#FACBB6"/>
<path d="M94.2751 98.3817C97.5612 98.3817 100.225 95.7207 100.225 92.4382C100.225 89.1557 97.5612 86.4947 94.2751 86.4947C90.9891 86.4947 88.3252 89.1557 88.3252 92.4382C88.3252 95.7207 90.9891 98.3817 94.2751 98.3817Z" fill="#FACBB6"/>
<path d="M133.301 81.8063C133.301 89.3741 132.192 95.9083 131.12 100.56C130.049 105.1 127.018 108.275 122.768 110.822L121.992 111.265C117.447 113.997 111.682 114.071 107.062 111.45C102.443 108.829 99.2273 105.359 98.2295 100.486C96.4186 91.626 96.2339 81.8063 96.2339 81.8063C96.2339 81.8063 94.4969 62.6837 114.49 63.0529C134.484 63.459 133.301 81.8063 133.301 81.8063Z" fill="#FACBB6"/>
<path d="M97.3055 89.5956C97.3055 89.5956 101.519 76.0105 98.4512 67.2244C98.4881 67.2244 86.6991 70.5838 97.3055 89.5956Z" fill="#01384F"/>
<path d="M132.562 89.5956C132.562 89.5956 127.24 76.0105 130.307 67.2244C130.27 67.2244 141.283 69.9193 132.562 89.5956Z" fill="#01384F"/>
<path d="M99.338 73.3156C99.338 73.3156 102.701 67.2244 108.762 70.5838C114.823 73.9432 120.81 77.1549 131.638 74.4969L130.196 67.1875C130.196 67.1875 115.155 51.2028 98.3772 67.1875L99.338 73.3156Z" fill="#01384F"/>
<path d="M98.3772 67.1875C98.3772 67.1875 99.3381 56.1126 115.007 55.1528C130.677 54.193 135.296 62.5361 135.296 62.5361L132.451 63.0529C132.451 63.0529 137.92 65.4155 139.362 67.7043L136.294 68.7749L140.359 72.3927C140.359 72.3927 127.573 77.3395 120.514 74.6815L114.638 65.8216L98.3772 67.1875Z" fill="#01384F"/>
<path d="M108.171 124.998L101.555 125.109C101.555 125.109 100.853 133.489 113.751 133.895C126.649 134.301 126.87 125.626 126.87 125.626L119.886 124.998H108.171Z" fill="#FACBB6"/>
<path d="M137.403 114.625H89.6555V66.966H137.403V114.625ZM90.2838 114.034H136.775V67.5567H90.2838V114.034Z" fill="#2A94F4"/>
<mask id="mask0_2402_1091" style="mask-type:alpha" maskUnits="userSpaceOnUse" x="89" y="82" width="49" height="21">
<path d="M137.218 82.2493H89.8774V102.664H137.218V82.2493Z" fill="url(#paint0_linear_2402_1091)"/>
</mask>
<g mask="url(#mask0_2402_1091)">
<path d="M137.218 82.2493H89.8774V102.664H137.218V82.2493Z" fill="#2A94F4"/>
</g>
<defs>
<linearGradient id="paint0_linear_2402_1091" x1="113.525" y1="80.5904" x2="113.525" y2="101.727" gradientUnits="userSpaceOnUse">
<stop stop-color="white"/>
<stop offset="1"/>
</linearGradient>
</defs>
</svg>
