<svg width="250" height="250" viewBox="0 0 250 250" fill="none" xmlns="http://www.w3.org/2000/svg">
<path d="M200.469 106.902C202.293 123.546 189.111 136.236 186.832 138.43C177.252 147.652 170.702 145.697 156.403 152.63C127.338 166.723 129.047 187.093 109.339 189.956C94.0884 192.172 76.1411 182.433 70.7961 169.67C65.8516 157.865 75.0951 151.6 70.3905 137.619C65.2538 122.354 52.268 123.977 46.0474 108.813C40.2276 94.6252 45.2295 77.6888 52.9447 66.6179C54.5805 64.2706 67.432 46.3823 86.6193 45.9263C104.338 45.5052 106.726 60.4436 132.871 68.2408C152.161 73.9936 156.207 67.4565 171.82 74.7323C176.491 76.9092 198.296 87.0698 200.469 106.902Z" fill="#C5E7FC"/>
<g opacity="0.44">
<g opacity="0.44">
<g opacity="0.44">
<path opacity="0.44" d="M208.516 192.814C208.516 193.32 208.106 193.729 207.606 193.729H192.224C191.724 193.729 191.314 193.32 191.314 192.814V186.31C191.314 185.804 191.724 185.392 192.224 185.392H207.606C208.106 185.392 208.516 185.804 208.516 186.31V192.814Z" fill="#F1F2F2"/>
</g>
<g opacity="0.44">
<path opacity="0.44" d="M190.177 192.814C190.177 193.32 189.77 193.729 189.267 193.729H173.888C173.385 193.729 172.979 193.32 172.979 192.814V186.31C172.979 185.804 173.385 185.392 173.888 185.392H189.267C189.771 185.392 190.177 185.804 190.177 186.31V192.814Z" fill="#F1F2F2"/>
</g>
<g opacity="0.44">
<path opacity="0.44" d="M171.839 192.814C171.839 193.32 171.433 193.729 170.93 193.729H155.55C155.048 193.729 154.641 193.32 154.641 192.814V186.31C154.641 185.804 155.048 185.392 155.55 185.392H170.93C171.433 185.392 171.839 185.804 171.839 186.31V192.814Z" fill="#F1F2F2"/>
</g>
<g opacity="0.44">
<path opacity="0.44" d="M153.503 192.814C153.503 193.32 153.095 193.729 152.592 193.729H137.212C136.709 193.729 136.303 193.32 136.303 192.814V186.31C136.303 185.804 136.709 185.392 137.212 185.392H152.592C153.095 185.392 153.503 185.804 153.503 186.31V192.814Z" fill="#F1F2F2"/>
</g>
<g opacity="0.44">
<path opacity="0.44" d="M135.165 192.814C135.165 193.32 134.757 193.729 134.256 193.729H118.875C118.373 193.729 117.966 193.32 117.966 192.814V186.31C117.966 185.804 118.373 185.392 118.875 185.392H134.256C134.758 185.392 135.165 185.804 135.165 186.31V192.814Z" fill="#F1F2F2"/>
</g>
<g opacity="0.44">
<path opacity="0.44" d="M116.828 192.814C116.828 193.32 116.42 193.729 115.919 193.729H100.537C100.036 193.729 99.6279 193.32 99.6279 192.814V186.31C99.6279 185.804 100.036 185.392 100.537 185.392H115.919C116.42 185.392 116.828 185.804 116.828 186.31V192.814Z" fill="#F1F2F2"/>
</g>
<g opacity="0.44">
<path opacity="0.44" d="M98.4898 192.814C98.4898 193.32 98.0836 193.729 97.5805 193.729H82.1994C81.6978 193.729 81.29 193.32 81.29 192.814V186.31C81.29 185.804 81.698 185.392 82.1994 185.392H97.5805C98.0836 185.392 98.4898 185.804 98.4898 186.31V192.814Z" fill="#F1F2F2"/>
</g>
<g opacity="0.44">
<path opacity="0.44" d="M80.1524 192.814C80.1524 193.32 79.7459 193.729 79.243 193.729H63.8632C63.3605 193.729 62.9539 193.32 62.9539 192.814V186.31C62.9539 185.804 63.3605 185.392 63.8632 185.392H79.243C79.7461 185.392 80.1524 185.804 80.1524 186.31V192.814Z" fill="#F1F2F2"/>
</g>
<g opacity="0.44">
<path opacity="0.44" d="M61.8148 192.814C61.8148 193.32 61.4081 193.729 60.9054 193.729H45.5256C45.0225 193.729 44.6162 193.32 44.6162 192.814V186.31C44.6162 185.804 45.0227 185.392 45.5256 185.392H60.9054C61.4081 185.392 61.8148 185.804 61.8148 186.31V192.814Z" fill="#F1F2F2"/>
</g>
<g opacity="0.44">
<path opacity="0.44" d="M43.4772 192.814C43.4772 193.32 43.0707 193.729 42.5678 193.729H27.1884C26.6853 193.729 26.2791 193.32 26.2791 192.814V186.31C26.2791 185.804 26.6853 185.392 27.1884 185.392H42.5678C43.0709 185.392 43.4772 185.804 43.4772 186.31V192.814Z" fill="#F1F2F2"/>
</g>
<g opacity="0.44">
<path opacity="0.44" d="M208.516 173.901C208.516 174.407 208.106 174.82 207.606 174.82H192.224C191.724 174.82 191.314 174.407 191.314 173.901V167.397C191.314 166.891 191.724 166.482 192.224 166.482H207.606C208.106 166.482 208.516 166.891 208.516 167.397V173.901Z" fill="#F1F2F2"/>
</g>
<g opacity="0.44">
<path opacity="0.44" d="M190.177 173.901C190.177 174.407 189.77 174.82 189.267 174.82H173.888C173.385 174.82 172.979 174.407 172.979 173.901V167.397C172.979 166.891 173.385 166.482 173.888 166.482H189.267C189.771 166.482 190.177 166.891 190.177 167.397V173.901Z" fill="#F1F2F2"/>
</g>
<g opacity="0.44">
<path opacity="0.44" d="M171.839 173.901C171.839 174.407 171.433 174.82 170.93 174.82H155.55C155.048 174.82 154.641 174.407 154.641 173.901V167.397C154.641 166.891 155.048 166.482 155.55 166.482H170.93C171.433 166.482 171.839 166.891 171.839 167.397V173.901Z" fill="#F1F2F2"/>
</g>
<g opacity="0.44">
<path opacity="0.44" d="M153.503 173.901C153.503 174.407 153.095 174.82 152.592 174.82H137.212C136.709 174.82 136.303 174.407 136.303 173.901V167.397C136.303 166.891 136.709 166.482 137.212 166.482H152.592C153.095 166.482 153.503 166.891 153.503 167.397V173.901Z" fill="#F1F2F2"/>
</g>
<g opacity="0.44">
<path opacity="0.44" d="M135.165 173.901C135.165 174.407 134.757 174.82 134.256 174.82H118.875C118.373 174.82 117.966 174.407 117.966 173.901V167.397C117.966 166.891 118.373 166.482 118.875 166.482H134.256C134.758 166.482 135.165 166.891 135.165 167.397V173.901Z" fill="#F1F2F2"/>
</g>
<g opacity="0.44">
<path opacity="0.44" d="M116.828 173.901C116.828 174.407 116.42 174.82 115.919 174.82H100.537C100.036 174.82 99.6279 174.407 99.6279 173.901V167.397C99.6279 166.891 100.036 166.482 100.537 166.482H115.919C116.42 166.482 116.828 166.891 116.828 167.397V173.901Z" fill="#F1F2F2"/>
</g>
<g opacity="0.44">
<path opacity="0.44" d="M98.4898 173.901C98.4898 174.407 98.0836 174.82 97.5805 174.82H82.1994C81.6978 174.82 81.29 174.407 81.29 173.901V167.397C81.29 166.891 81.698 166.482 82.1994 166.482H97.5805C98.0836 166.482 98.4898 166.891 98.4898 167.397V173.901Z" fill="#F1F2F2"/>
</g>
<g opacity="0.44">
<path opacity="0.44" d="M80.1524 173.901C80.1524 174.407 79.7459 174.82 79.243 174.82H63.8632C63.3605 174.82 62.9539 174.407 62.9539 173.901V167.397C62.9539 166.891 63.3605 166.482 63.8632 166.482H79.243C79.7461 166.482 80.1524 166.891 80.1524 167.397V173.901Z" fill="#F1F2F2"/>
</g>
<g opacity="0.44">
<path opacity="0.44" d="M61.8148 173.901C61.8148 174.407 61.4081 174.82 60.9054 174.82H45.5256C45.0225 174.82 44.6162 174.407 44.6162 173.901V167.397C44.6162 166.891 45.0227 166.482 45.5256 166.482H60.9054C61.4081 166.482 61.8148 166.891 61.8148 167.397V173.901Z" fill="#F1F2F2"/>
</g>
<g opacity="0.44">
<path opacity="0.44" d="M43.4772 173.901C43.4772 174.407 43.0707 174.82 42.5678 174.82H27.1884C26.6853 174.82 26.2791 174.407 26.2791 173.901V167.397C26.2791 166.891 26.6853 166.482 27.1884 166.482H42.5678C43.0709 166.482 43.4772 166.891 43.4772 167.397V173.901Z" fill="#F1F2F2"/>
</g>
<g opacity="0.44">
<path opacity="0.44" d="M208.516 154.992C208.516 155.498 208.106 155.908 207.606 155.908H192.224C191.724 155.908 191.314 155.498 191.314 154.992V148.488C191.314 147.982 191.724 147.57 192.224 147.57H207.606C208.106 147.57 208.516 147.982 208.516 148.488V154.992Z" fill="#F1F2F2"/>
</g>
<g opacity="0.44">
<path opacity="0.44" d="M190.177 154.992C190.177 155.498 189.77 155.908 189.267 155.908H173.888C173.385 155.908 172.979 155.498 172.979 154.992V148.488C172.979 147.982 173.385 147.57 173.888 147.57H189.267C189.771 147.57 190.177 147.982 190.177 148.488V154.992Z" fill="#F1F2F2"/>
</g>
<g opacity="0.44">
<path opacity="0.44" d="M171.839 154.992C171.839 155.498 171.433 155.908 170.93 155.908H155.55C155.048 155.908 154.641 155.498 154.641 154.992V148.488C154.641 147.982 155.048 147.57 155.55 147.57H170.93C171.433 147.57 171.839 147.982 171.839 148.488V154.992Z" fill="#F1F2F2"/>
</g>
<g opacity="0.44">
<path opacity="0.44" d="M153.503 154.992C153.503 155.498 153.095 155.908 152.592 155.908H137.212C136.709 155.908 136.303 155.498 136.303 154.992V148.488C136.303 147.982 136.709 147.57 137.212 147.57H152.592C153.095 147.57 153.503 147.982 153.503 148.488V154.992Z" fill="#F1F2F2"/>
</g>
<g opacity="0.44">
<path opacity="0.44" d="M135.165 154.992C135.165 155.498 134.757 155.908 134.256 155.908H118.875C118.373 155.908 117.966 155.498 117.966 154.992V148.488C117.966 147.982 118.373 147.57 118.875 147.57H134.256C134.758 147.57 135.165 147.982 135.165 148.488V154.992Z" fill="#F1F2F2"/>
</g>
<g opacity="0.44">
<path opacity="0.44" d="M116.828 154.992C116.828 155.498 116.42 155.908 115.919 155.908H100.537C100.036 155.908 99.6279 155.498 99.6279 154.992V148.488C99.6279 147.982 100.036 147.57 100.537 147.57H115.919C116.42 147.57 116.828 147.982 116.828 148.488V154.992Z" fill="#F1F2F2"/>
</g>
<g opacity="0.44">
<path opacity="0.44" d="M98.4898 154.992C98.4898 155.498 98.0836 155.908 97.5805 155.908H82.1994C81.6978 155.908 81.29 155.498 81.29 154.992V148.488C81.29 147.982 81.698 147.57 82.1994 147.57H97.5805C98.0836 147.57 98.4898 147.982 98.4898 148.488V154.992Z" fill="#F1F2F2"/>
</g>
<g opacity="0.44">
<path opacity="0.44" d="M80.1524 154.992C80.1524 155.498 79.7459 155.908 79.243 155.908H63.8632C63.3605 155.908 62.9539 155.498 62.9539 154.992V148.488C62.9539 147.982 63.3605 147.57 63.8632 147.57H79.243C79.7461 147.57 80.1524 147.982 80.1524 148.488V154.992Z" fill="#F1F2F2"/>
</g>
<g opacity="0.44">
<path opacity="0.44" d="M61.8148 154.992C61.8148 155.498 61.4081 155.908 60.9054 155.908H45.5256C45.0225 155.908 44.6162 155.498 44.6162 154.992V148.488C44.6162 147.982 45.0227 147.57 45.5256 147.57H60.9054C61.4081 147.57 61.8148 147.982 61.8148 148.488V154.992Z" fill="#F1F2F2"/>
</g>
<g opacity="0.44">
<path opacity="0.44" d="M43.4772 154.992C43.4772 155.498 43.0707 155.908 42.5678 155.908H27.1884C26.6853 155.908 26.2791 155.498 26.2791 154.992V148.488C26.2791 147.982 26.6853 147.57 27.1884 147.57H42.5678C43.0709 147.57 43.4772 147.982 43.4772 148.488V154.992Z" fill="#F1F2F2"/>
</g>
<g opacity="0.44">
<path opacity="0.44" d="M208.516 136.08C208.516 136.586 208.106 136.998 207.606 136.998H192.224C191.724 136.998 191.314 136.586 191.314 136.08V129.576C191.314 129.07 191.724 128.66 192.224 128.66H207.606C208.106 128.66 208.516 129.07 208.516 129.576V136.08Z" fill="#F1F2F2"/>
</g>
<g opacity="0.44">
<path opacity="0.44" d="M190.177 136.08C190.177 136.586 189.77 136.998 189.267 136.998H173.888C173.385 136.998 172.979 136.586 172.979 136.08V129.576C172.979 129.07 173.385 128.66 173.888 128.66H189.267C189.771 128.66 190.177 129.07 190.177 129.576V136.08Z" fill="#F1F2F2"/>
</g>
<g opacity="0.44">
<path opacity="0.44" d="M171.839 136.08C171.839 136.586 171.433 136.998 170.93 136.998H155.55C155.048 136.998 154.641 136.586 154.641 136.08V129.576C154.641 129.07 155.048 128.66 155.55 128.66H170.93C171.433 128.66 171.839 129.07 171.839 129.576V136.08Z" fill="#F1F2F2"/>
</g>
<g opacity="0.44">
<path opacity="0.44" d="M153.503 136.08C153.503 136.586 153.095 136.998 152.592 136.998H137.212C136.709 136.998 136.303 136.586 136.303 136.08V129.576C136.303 129.07 136.709 128.66 137.212 128.66H152.592C153.095 128.66 153.503 129.07 153.503 129.576V136.08Z" fill="#F1F2F2"/>
</g>
<g opacity="0.44">
<path opacity="0.44" d="M135.165 136.08C135.165 136.586 134.757 136.998 134.256 136.998H118.875C118.373 136.998 117.966 136.586 117.966 136.08V129.576C117.966 129.07 118.373 128.66 118.875 128.66H134.256C134.758 128.66 135.165 129.07 135.165 129.576V136.08Z" fill="#F1F2F2"/>
</g>
<g opacity="0.44">
<path opacity="0.44" d="M116.828 136.08C116.828 136.586 116.42 136.998 115.919 136.998H100.537C100.036 136.998 99.6279 136.586 99.6279 136.08V129.576C99.6279 129.07 100.036 128.66 100.537 128.66H115.919C116.42 128.66 116.828 129.07 116.828 129.576V136.08Z" fill="#F1F2F2"/>
</g>
<g opacity="0.44">
<path opacity="0.44" d="M98.4898 136.08C98.4898 136.586 98.0836 136.998 97.5805 136.998H82.1994C81.6978 136.998 81.29 136.586 81.29 136.08V129.576C81.29 129.07 81.698 128.66 82.1994 128.66H97.5805C98.0836 128.66 98.4898 129.07 98.4898 129.576V136.08Z" fill="#F1F2F2"/>
</g>
<g opacity="0.44">
<path opacity="0.44" d="M80.1524 136.08C80.1524 136.586 79.7459 136.998 79.243 136.998H63.8632C63.3605 136.998 62.9539 136.586 62.9539 136.08V129.576C62.9539 129.07 63.3605 128.66 63.8632 128.66H79.243C79.7461 128.66 80.1524 129.07 80.1524 129.576V136.08Z" fill="#F1F2F2"/>
</g>
<g opacity="0.44">
<path opacity="0.44" d="M61.8148 136.08C61.8148 136.586 61.4081 136.998 60.9054 136.998H45.5256C45.0225 136.998 44.6162 136.586 44.6162 136.08V129.576C44.6162 129.07 45.0227 128.66 45.5256 128.66H60.9054C61.4081 128.66 61.8148 129.07 61.8148 129.576V136.08Z" fill="#F1F2F2"/>
</g>
<g opacity="0.44">
<path opacity="0.44" d="M43.4772 136.08C43.4772 136.586 43.0707 136.998 42.5678 136.998H27.1884C26.6853 136.998 26.2791 136.586 26.2791 136.08V129.576C26.2791 129.07 26.6853 128.66 27.1884 128.66H42.5678C43.0709 128.66 43.4772 129.07 43.4772 129.576V136.08Z" fill="#F1F2F2"/>
</g>
<g opacity="0.44">
<path opacity="0.44" d="M208.516 117.17C208.516 117.676 208.106 118.086 207.606 118.086H192.224C191.724 118.086 191.314 117.676 191.314 117.17V110.666C191.314 110.161 191.724 109.748 192.224 109.748H207.606C208.106 109.748 208.516 110.161 208.516 110.666V117.17Z" fill="#F1F2F2"/>
</g>
<g opacity="0.44">
<path opacity="0.44" d="M190.177 117.17C190.177 117.676 189.77 118.086 189.267 118.086H173.888C173.385 118.086 172.979 117.676 172.979 117.17V110.666C172.979 110.161 173.385 109.748 173.888 109.748H189.267C189.771 109.748 190.177 110.161 190.177 110.666V117.17Z" fill="#F1F2F2"/>
</g>
<g opacity="0.44">
<path opacity="0.44" d="M171.839 117.17C171.839 117.676 171.433 118.086 170.93 118.086H155.55C155.048 118.086 154.641 117.676 154.641 117.17V110.666C154.641 110.161 155.048 109.748 155.55 109.748H170.93C171.433 109.748 171.839 110.161 171.839 110.666V117.17Z" fill="#F1F2F2"/>
</g>
<g opacity="0.44">
<path opacity="0.44" d="M153.503 117.17C153.503 117.676 153.095 118.086 152.592 118.086H137.212C136.709 118.086 136.303 117.676 136.303 117.17V110.666C136.303 110.161 136.709 109.748 137.212 109.748H152.592C153.095 109.748 153.503 110.161 153.503 110.666V117.17Z" fill="#F1F2F2"/>
</g>
<g opacity="0.44">
<path opacity="0.44" d="M135.165 117.17C135.165 117.676 134.757 118.086 134.256 118.086H118.875C118.373 118.086 117.966 117.676 117.966 117.17V110.666C117.966 110.161 118.373 109.748 118.875 109.748H134.256C134.758 109.748 135.165 110.161 135.165 110.666V117.17Z" fill="#F1F2F2"/>
</g>
<g opacity="0.44">
<path opacity="0.44" d="M116.828 117.17C116.828 117.676 116.42 118.086 115.919 118.086H100.537C100.036 118.086 99.6279 117.676 99.6279 117.17V110.666C99.6279 110.161 100.036 109.748 100.537 109.748H115.919C116.42 109.748 116.828 110.161 116.828 110.666V117.17Z" fill="#F1F2F2"/>
</g>
<g opacity="0.44">
<path opacity="0.44" d="M98.4898 117.17C98.4898 117.676 98.0836 118.086 97.5805 118.086H82.1994C81.6978 118.086 81.29 117.676 81.29 117.17V110.666C81.29 110.161 81.698 109.748 82.1994 109.748H97.5805C98.0836 109.748 98.4898 110.161 98.4898 110.666V117.17Z" fill="#F1F2F2"/>
</g>
<g opacity="0.44">
<path opacity="0.44" d="M80.1524 117.17C80.1524 117.676 79.7459 118.086 79.243 118.086H63.8632C63.3605 118.086 62.9539 117.676 62.9539 117.17V110.666C62.9539 110.161 63.3605 109.748 63.8632 109.748H79.243C79.7461 109.748 80.1524 110.161 80.1524 110.666V117.17Z" fill="#F1F2F2"/>
</g>
<g opacity="0.44">
<path opacity="0.44" d="M61.8148 117.17C61.8148 117.676 61.4081 118.086 60.9054 118.086H45.5256C45.0225 118.086 44.6162 117.676 44.6162 117.17V110.666C44.6162 110.161 45.0227 109.748 45.5256 109.748H60.9054C61.4081 109.748 61.8148 110.161 61.8148 110.666V117.17Z" fill="#F1F2F2"/>
</g>
<g opacity="0.44">
<path opacity="0.44" d="M43.4772 117.17C43.4772 117.676 43.0707 118.086 42.5678 118.086H27.1884C26.6853 118.086 26.2791 117.676 26.2791 117.17V110.666C26.2791 110.161 26.6853 109.748 27.1884 109.748H42.5678C43.0709 109.748 43.4772 110.161 43.4772 110.666V117.17Z" fill="#F1F2F2"/>
</g>
<g opacity="0.44">
<path opacity="0.44" d="M208.516 98.2581C208.516 98.764 208.106 99.1762 207.606 99.1762H192.224C191.724 99.1762 191.314 98.764 191.314 98.2581V91.7542C191.314 91.2483 191.724 90.8387 192.224 90.8387H207.606C208.106 90.8387 208.516 91.2483 208.516 91.7542V98.2581Z" fill="#F1F2F2"/>
</g>
<g opacity="0.44">
<path opacity="0.44" d="M190.177 98.2581C190.177 98.764 189.77 99.1762 189.267 99.1762H173.888C173.385 99.1762 172.979 98.764 172.979 98.2581V91.7542C172.979 91.2483 173.385 90.8387 173.888 90.8387H189.267C189.771 90.8387 190.177 91.2483 190.177 91.7542V98.2581Z" fill="#F1F2F2"/>
</g>
<g opacity="0.44">
<path opacity="0.44" d="M171.839 98.2581C171.839 98.764 171.433 99.1762 170.93 99.1762H155.55C155.048 99.1762 154.641 98.764 154.641 98.2581V91.7542C154.641 91.2483 155.048 90.8387 155.55 90.8387H170.93C171.433 90.8387 171.839 91.2483 171.839 91.7542V98.2581Z" fill="#F1F2F2"/>
</g>
<g opacity="0.44">
<path opacity="0.44" d="M153.503 98.2581C153.503 98.764 153.095 99.1762 152.592 99.1762H137.212C136.709 99.1762 136.303 98.764 136.303 98.2581V91.7542C136.303 91.2483 136.709 90.8387 137.212 90.8387H152.592C153.095 90.8387 153.503 91.2483 153.503 91.7542V98.2581Z" fill="#F1F2F2"/>
</g>
<g opacity="0.44">
<path opacity="0.44" d="M135.165 98.2581C135.165 98.764 134.757 99.1762 134.256 99.1762H118.875C118.373 99.1762 117.966 98.764 117.966 98.2581V91.7542C117.966 91.2483 118.373 90.8387 118.875 90.8387H134.256C134.758 90.8387 135.165 91.2483 135.165 91.7542V98.2581Z" fill="#F1F2F2"/>
</g>
<g opacity="0.44">
<path opacity="0.44" d="M116.828 98.2581C116.828 98.764 116.42 99.1762 115.919 99.1762H100.537C100.036 99.1762 99.6279 98.764 99.6279 98.2581V91.7542C99.6279 91.2483 100.036 90.8387 100.537 90.8387H115.919C116.42 90.8387 116.828 91.2483 116.828 91.7542V98.2581Z" fill="#F1F2F2"/>
</g>
<g opacity="0.44">
<path opacity="0.44" d="M98.4898 98.2581C98.4898 98.764 98.0836 99.1762 97.5805 99.1762H82.1994C81.6978 99.1762 81.29 98.764 81.29 98.2581V91.7542C81.29 91.2483 81.698 90.8387 82.1994 90.8387H97.5805C98.0836 90.8387 98.4898 91.2483 98.4898 91.7542V98.2581Z" fill="#F1F2F2"/>
</g>
<g opacity="0.44">
<path opacity="0.44" d="M80.1524 98.2581C80.1524 98.764 79.7459 99.1762 79.243 99.1762H63.8632C63.3605 99.1762 62.9539 98.764 62.9539 98.2581V91.7542C62.9539 91.2483 63.3605 90.8387 63.8632 90.8387H79.243C79.7461 90.8387 80.1524 91.2483 80.1524 91.7542V98.2581Z" fill="#F1F2F2"/>
</g>
<g opacity="0.44">
<path opacity="0.44" d="M61.8148 98.2581C61.8148 98.764 61.4081 99.1762 60.9054 99.1762H45.5256C45.0225 99.1762 44.6162 98.764 44.6162 98.2581V91.7542C44.6162 91.2483 45.0227 90.8387 45.5256 90.8387H60.9054C61.4081 90.8387 61.8148 91.2483 61.8148 91.7542V98.2581Z" fill="#F1F2F2"/>
</g>
<g opacity="0.44">
<path opacity="0.44" d="M43.4772 98.2581C43.4772 98.764 43.0707 99.1762 42.5678 99.1762H27.1884C26.6853 99.1762 26.2791 98.764 26.2791 98.2581V91.7542C26.2791 91.2483 26.6853 90.8387 27.1884 90.8387H42.5678C43.0709 90.8387 43.4772 91.2483 43.4772 91.7542V98.2581Z" fill="#F1F2F2"/>
</g>
<g opacity="0.44">
<path opacity="0.44" d="M208.516 79.3487C208.516 79.8548 208.106 80.2641 207.606 80.2641H192.224C191.724 80.2641 191.314 79.8548 191.314 79.3487V72.8448C191.314 72.3389 191.724 71.9266 192.224 71.9266H207.606C208.106 71.9266 208.516 72.3389 208.516 72.8448V79.3487Z" fill="#F1F2F2"/>
</g>
<g opacity="0.44">
<path opacity="0.44" d="M190.177 79.3487C190.177 79.8548 189.77 80.2641 189.267 80.2641H173.888C173.385 80.2641 172.979 79.8548 172.979 79.3487V72.8448C172.979 72.3389 173.385 71.9266 173.888 71.9266H189.267C189.771 71.9266 190.177 72.3389 190.177 72.8448V79.3487Z" fill="#F1F2F2"/>
</g>
<g opacity="0.44">
<path opacity="0.44" d="M171.839 79.3487C171.839 79.8548 171.433 80.2641 170.93 80.2641H155.55C155.048 80.2641 154.641 79.8548 154.641 79.3487V72.8448C154.641 72.3389 155.048 71.9266 155.55 71.9266H170.93C171.433 71.9266 171.839 72.3389 171.839 72.8448V79.3487Z" fill="#F1F2F2"/>
</g>
<g opacity="0.44">
<path opacity="0.44" d="M153.503 79.3487C153.503 79.8548 153.095 80.2641 152.592 80.2641H137.212C136.709 80.2641 136.303 79.8548 136.303 79.3487V72.8448C136.303 72.3389 136.709 71.9266 137.212 71.9266H152.592C153.095 71.9266 153.503 72.3389 153.503 72.8448V79.3487Z" fill="#F1F2F2"/>
</g>
<g opacity="0.44">
<path opacity="0.44" d="M135.165 79.3487C135.165 79.8548 134.757 80.2641 134.256 80.2641H118.875C118.373 80.2641 117.966 79.8548 117.966 79.3487V72.8448C117.966 72.3389 118.373 71.9266 118.875 71.9266H134.256C134.758 71.9266 135.165 72.3389 135.165 72.8448V79.3487Z" fill="#F1F2F2"/>
</g>
<g opacity="0.44">
<path opacity="0.44" d="M116.828 79.3487C116.828 79.8548 116.42 80.2641 115.919 80.2641H100.537C100.036 80.2641 99.6279 79.8548 99.6279 79.3487V72.8448C99.6279 72.3389 100.036 71.9266 100.537 71.9266H115.919C116.42 71.9266 116.828 72.3389 116.828 72.8448V79.3487Z" fill="#F1F2F2"/>
</g>
<g opacity="0.44">
<path opacity="0.44" d="M98.4898 79.3487C98.4898 79.8548 98.0836 80.2641 97.5805 80.2641H82.1994C81.6978 80.2641 81.29 79.8548 81.29 79.3487V72.8448C81.29 72.3389 81.698 71.9266 82.1994 71.9266H97.5805C98.0836 71.9266 98.4898 72.3389 98.4898 72.8448V79.3487Z" fill="#F1F2F2"/>
</g>
<g opacity="0.44">
<path opacity="0.44" d="M80.1524 79.3487C80.1524 79.8548 79.7459 80.2641 79.243 80.2641H63.8632C63.3605 80.2641 62.9539 79.8548 62.9539 79.3487V72.8448C62.9539 72.3389 63.3605 71.9266 63.8632 71.9266H79.243C79.7461 71.9266 80.1524 72.3389 80.1524 72.8448V79.3487Z" fill="#F1F2F2"/>
</g>
<g opacity="0.44">
<path opacity="0.44" d="M61.8148 79.3487C61.8148 79.8548 61.4081 80.2641 60.9054 80.2641H45.5256C45.0225 80.2641 44.6162 79.8548 44.6162 79.3487V72.8448C44.6162 72.3389 45.0227 71.9266 45.5256 71.9266H60.9054C61.4081 71.9266 61.8148 72.3389 61.8148 72.8448V79.3487Z" fill="#F1F2F2"/>
</g>
<g opacity="0.44">
<path opacity="0.44" d="M43.4772 79.3487C43.4772 79.8548 43.0707 80.2641 42.5678 80.2641H27.1884C26.6853 80.2641 26.2791 79.8548 26.2791 79.3487V72.8448C26.2791 72.3389 26.6853 71.9266 27.1884 71.9266H42.5678C43.0709 71.9266 43.4772 72.3389 43.4772 72.8448V79.3487Z" fill="#F1F2F2"/>
</g>
<g opacity="0.44">
<path opacity="0.44" d="M208.516 60.4364C208.516 60.9423 208.106 61.3546 207.606 61.3546H192.224C191.724 61.3546 191.314 60.9423 191.314 60.4364V53.9325C191.314 53.4266 191.724 53.0173 192.224 53.0173H207.606C208.106 53.0173 208.516 53.4266 208.516 53.9325V60.4364Z" fill="#F1F2F2"/>
</g>
<g opacity="0.44">
<path opacity="0.44" d="M190.177 60.4364C190.177 60.9423 189.77 61.3546 189.267 61.3546H173.888C173.385 61.3546 172.979 60.9423 172.979 60.4364V53.9325C172.979 53.4266 173.385 53.0173 173.888 53.0173H189.267C189.771 53.0173 190.177 53.4266 190.177 53.9325V60.4364Z" fill="#F1F2F2"/>
</g>
<g opacity="0.44">
<path opacity="0.44" d="M171.839 60.4364C171.839 60.9423 171.433 61.3546 170.93 61.3546H155.55C155.048 61.3546 154.641 60.9423 154.641 60.4364V53.9325C154.641 53.4266 155.048 53.0173 155.55 53.0173H170.93C171.433 53.0173 171.839 53.4266 171.839 53.9325V60.4364Z" fill="#F1F2F2"/>
</g>
<g opacity="0.44">
<path opacity="0.44" d="M153.503 60.4364C153.503 60.9423 153.095 61.3546 152.592 61.3546H137.212C136.709 61.3546 136.303 60.9423 136.303 60.4364V53.9325C136.303 53.4266 136.709 53.0173 137.212 53.0173H152.592C153.095 53.0173 153.503 53.4266 153.503 53.9325V60.4364Z" fill="#F1F2F2"/>
</g>
<g opacity="0.44">
<path opacity="0.44" d="M135.165 60.4364C135.165 60.9423 134.757 61.3546 134.256 61.3546H118.875C118.373 61.3546 117.966 60.9423 117.966 60.4364V53.9325C117.966 53.4266 118.373 53.0173 118.875 53.0173H134.256C134.758 53.0173 135.165 53.4266 135.165 53.9325V60.4364Z" fill="#F1F2F2"/>
</g>
<g opacity="0.44">
<path opacity="0.44" d="M116.828 60.4364C116.828 60.9423 116.42 61.3546 115.919 61.3546H100.537C100.036 61.3546 99.6279 60.9423 99.6279 60.4364V53.9325C99.6279 53.4266 100.036 53.0173 100.537 53.0173H115.919C116.42 53.0173 116.828 53.4266 116.828 53.9325V60.4364Z" fill="#F1F2F2"/>
</g>
<g opacity="0.44">
<path opacity="0.44" d="M98.4898 60.4364C98.4898 60.9423 98.0836 61.3546 97.5805 61.3546H82.1994C81.6978 61.3546 81.29 60.9423 81.29 60.4364V53.9325C81.29 53.4266 81.698 53.0173 82.1994 53.0173H97.5805C98.0836 53.0173 98.4898 53.4266 98.4898 53.9325V60.4364Z" fill="#F1F2F2"/>
</g>
<g opacity="0.44">
<path opacity="0.44" d="M80.1524 60.4364C80.1524 60.9423 79.7459 61.3546 79.243 61.3546H63.8632C63.3605 61.3546 62.9539 60.9423 62.9539 60.4364V53.9325C62.9539 53.4266 63.3605 53.0173 63.8632 53.0173H79.243C79.7461 53.0173 80.1524 53.4266 80.1524 53.9325V60.4364Z" fill="#F1F2F2"/>
</g>
<g opacity="0.44">
<path opacity="0.44" d="M61.8148 60.4364C61.8148 60.9423 61.4081 61.3546 60.9054 61.3546H45.5256C45.0225 61.3546 44.6162 60.9423 44.6162 60.4364V53.9325C44.6162 53.4266 45.0227 53.0173 45.5256 53.0173H60.9054C61.4081 53.0173 61.8148 53.4266 61.8148 53.9325V60.4364Z" fill="#F1F2F2"/>
</g>
<g opacity="0.44">
<path opacity="0.44" d="M43.4772 60.4364C43.4772 60.9423 43.0707 61.3546 42.5678 61.3546H27.1884C26.6853 61.3546 26.2791 60.9423 26.2791 60.4364V53.9325C26.2791 53.4266 26.6853 53.0173 27.1884 53.0173H42.5678C43.0709 53.0173 43.4772 53.4266 43.4772 53.9325V60.4364Z" fill="#F1F2F2"/>
</g>
<g opacity="0.44">
<path opacity="0.44" d="M208.516 41.5258C208.516 42.0317 208.106 42.4425 207.606 42.4425H192.224C191.724 42.4425 191.314 42.0317 191.314 41.5258V35.0219C191.314 34.5158 191.724 34.1064 192.224 34.1064H207.606C208.106 34.1064 208.516 34.5158 208.516 35.0219V41.5258Z" fill="#F1F2F2"/>
</g>
<g opacity="0.44">
<path opacity="0.44" d="M190.177 41.5258C190.177 42.0317 189.77 42.4425 189.267 42.4425H173.888C173.385 42.4425 172.979 42.0317 172.979 41.5258V35.0219C172.979 34.5158 173.385 34.1064 173.888 34.1064H189.267C189.771 34.1064 190.177 34.5158 190.177 35.0219V41.5258Z" fill="#F1F2F2"/>
</g>
<g opacity="0.44">
<path opacity="0.44" d="M171.839 41.5258C171.839 42.0317 171.433 42.4425 170.93 42.4425H155.55C155.048 42.4425 154.641 42.0317 154.641 41.5258V35.0219C154.641 34.5158 155.048 34.1064 155.55 34.1064H170.93C171.433 34.1064 171.839 34.5158 171.839 35.0219V41.5258Z" fill="#F1F2F2"/>
</g>
<g opacity="0.44">
<path opacity="0.44" d="M153.503 41.5258C153.503 42.0317 153.095 42.4425 152.592 42.4425H137.212C136.709 42.4425 136.303 42.0317 136.303 41.5258V35.0219C136.303 34.5158 136.709 34.1064 137.212 34.1064H152.592C153.095 34.1064 153.503 34.5158 153.503 35.0219V41.5258Z" fill="#F1F2F2"/>
</g>
<g opacity="0.44">
<path opacity="0.44" d="M135.165 41.5258C135.165 42.0317 134.757 42.4425 134.256 42.4425H118.875C118.373 42.4425 117.966 42.0317 117.966 41.5258V35.0219C117.966 34.5158 118.373 34.1064 118.875 34.1064H134.256C134.758 34.1064 135.165 34.5158 135.165 35.0219V41.5258Z" fill="#F1F2F2"/>
</g>
<g opacity="0.44">
<path opacity="0.44" d="M116.828 41.5258C116.828 42.0317 116.42 42.4425 115.919 42.4425H100.537C100.036 42.4425 99.6279 42.0317 99.6279 41.5258V35.0219C99.6279 34.5158 100.036 34.1064 100.537 34.1064H115.919C116.42 34.1064 116.828 34.5158 116.828 35.0219V41.5258Z" fill="#F1F2F2"/>
</g>
<g opacity="0.44">
<path opacity="0.44" d="M98.4898 41.5258C98.4898 42.0317 98.0836 42.4425 97.5805 42.4425H82.1994C81.6978 42.4425 81.29 42.0317 81.29 41.5258V35.0219C81.29 34.5158 81.698 34.1064 82.1994 34.1064H97.5805C98.0836 34.1064 98.4898 34.5158 98.4898 35.0219V41.5258Z" fill="#F1F2F2"/>
</g>
<g opacity="0.44">
<path opacity="0.44" d="M80.1524 41.5258C80.1524 42.0317 79.7459 42.4425 79.243 42.4425H63.8632C63.3605 42.4425 62.9539 42.0317 62.9539 41.5258V35.0219C62.9539 34.5158 63.3605 34.1064 63.8632 34.1064H79.243C79.7461 34.1064 80.1524 34.5158 80.1524 35.0219V41.5258Z" fill="#F1F2F2"/>
</g>
<g opacity="0.44">
<path opacity="0.44" d="M61.8148 41.5258C61.8148 42.0317 61.4081 42.4425 60.9054 42.4425H45.5256C45.0225 42.4425 44.6162 42.0317 44.6162 41.5258V35.0219C44.6162 34.5158 45.0227 34.1064 45.5256 34.1064H60.9054C61.4081 34.1064 61.8148 34.5158 61.8148 35.0219V41.5258Z" fill="#F1F2F2"/>
</g>
<g opacity="0.44">
<path opacity="0.44" d="M43.4772 41.5258C43.4772 42.0317 43.0707 42.4425 42.5678 42.4425H27.1884C26.6853 42.4425 26.2791 42.0317 26.2791 41.5258V35.0219C26.2791 34.5158 26.6853 34.1064 27.1884 34.1064H42.5678C43.0709 34.1064 43.4772 34.5158 43.4772 35.0219V41.5258Z" fill="#F1F2F2"/>
</g>
<g opacity="0.44">
<path opacity="0.44" d="M217.684 202.066C217.684 202.572 217.277 202.982 216.775 202.982H201.392C200.892 202.982 200.485 202.572 200.485 202.066V195.562C200.485 195.057 200.892 194.644 201.392 194.644H216.775C217.277 194.644 217.684 195.057 217.684 195.562V202.066H217.684Z" fill="#F1F2F2"/>
</g>
<g opacity="0.44">
<path opacity="0.44" d="M199.345 202.066C199.345 202.572 198.938 202.982 198.435 202.982H183.056C182.553 202.982 182.146 202.572 182.146 202.066V195.562C182.146 195.057 182.553 194.644 183.056 194.644H198.435C198.938 194.644 199.345 195.057 199.345 195.562V202.066Z" fill="#F1F2F2"/>
</g>
<g opacity="0.44">
<path opacity="0.44" d="M181.009 202.066C181.009 202.572 180.602 202.982 180.099 202.982H164.718C164.217 202.982 163.808 202.572 163.808 202.066V195.562C163.808 195.057 164.216 194.644 164.718 194.644H180.099C180.602 194.644 181.009 195.057 181.009 195.562V202.066Z" fill="#F1F2F2"/>
</g>
<g opacity="0.44">
<path opacity="0.44" d="M162.671 202.066C162.671 202.572 162.263 202.982 161.762 202.982H146.381C145.879 202.982 145.471 202.572 145.471 202.066V195.562C145.471 195.057 145.879 194.644 146.381 194.644H161.762C162.263 194.644 162.671 195.057 162.671 195.562V202.066Z" fill="#F1F2F2"/>
</g>
<g opacity="0.44">
<path opacity="0.44" d="M144.333 202.066C144.333 202.572 143.927 202.982 143.424 202.982H128.043C127.541 202.982 127.134 202.572 127.134 202.066V195.562C127.134 195.057 127.542 194.644 128.043 194.644H143.424C143.927 194.644 144.333 195.057 144.333 195.562V202.066Z" fill="#F1F2F2"/>
</g>
<g opacity="0.44">
<path opacity="0.44" d="M125.996 202.066C125.996 202.572 125.589 202.982 125.087 202.982H109.707C109.204 202.982 108.797 202.572 108.797 202.066V195.562C108.797 195.057 109.204 194.644 109.707 194.644H125.087C125.59 194.644 125.996 195.057 125.996 195.562V202.066Z" fill="#F1F2F2"/>
</g>
<g opacity="0.44">
<path opacity="0.44" d="M107.658 202.066C107.658 202.572 107.252 202.982 106.748 202.982H91.3691C90.866 202.982 90.4597 202.572 90.4597 202.066V195.562C90.4597 195.057 90.8662 194.644 91.3691 194.644H106.748C107.252 194.644 107.658 195.057 107.658 195.562V202.066Z" fill="#F1F2F2"/>
</g>
<g opacity="0.44">
<path opacity="0.44" d="M89.3219 202.066C89.3219 202.572 88.9139 202.982 88.411 202.982H73.0314C72.5283 202.982 72.1221 202.572 72.1221 202.066V195.562C72.1221 195.057 72.5285 194.644 73.0314 194.644H88.411C88.9142 194.644 89.3219 195.057 89.3219 195.562V202.066Z" fill="#F1F2F2"/>
</g>
<g opacity="0.44">
<path opacity="0.44" d="M70.9844 202.066C70.9844 202.572 70.5763 202.982 70.075 202.982H54.6938C54.1925 202.982 53.7844 202.572 53.7844 202.066V195.562C53.7844 195.057 54.1925 194.644 54.6938 194.644H70.075C70.5763 194.644 70.9844 195.057 70.9844 195.562V202.066Z" fill="#F1F2F2"/>
</g>
<g opacity="0.44">
<path opacity="0.44" d="M52.6466 202.066C52.6466 202.572 52.2387 202.982 51.7372 202.982H36.3562C35.8545 202.982 35.4468 202.572 35.4468 202.066V195.562C35.4468 195.057 35.8547 194.644 36.3562 194.644H51.7372C52.2389 194.644 52.6466 195.057 52.6466 195.562V202.066Z" fill="#F1F2F2"/>
</g>
<g opacity="0.44">
<path opacity="0.44" d="M217.684 183.154C217.684 183.66 217.277 184.07 216.775 184.07H201.392C200.892 184.07 200.485 183.66 200.485 183.154V176.65C200.485 176.145 200.892 175.735 201.392 175.735H216.775C217.277 175.735 217.684 176.145 217.684 176.65V183.154H217.684Z" fill="#F1F2F2"/>
</g>
<g opacity="0.44">
<path opacity="0.44" d="M199.345 183.154C199.345 183.66 198.938 184.07 198.435 184.07H183.056C182.553 184.07 182.146 183.66 182.146 183.154V176.65C182.146 176.145 182.553 175.735 183.056 175.735H198.435C198.938 175.735 199.345 176.145 199.345 176.65V183.154Z" fill="#F1F2F2"/>
</g>
<g opacity="0.44">
<path opacity="0.44" d="M181.009 183.154C181.009 183.66 180.602 184.07 180.099 184.07H164.718C164.217 184.07 163.808 183.66 163.808 183.154V176.65C163.808 176.145 164.216 175.735 164.718 175.735H180.099C180.602 175.735 181.009 176.145 181.009 176.65V183.154Z" fill="#F1F2F2"/>
</g>
<g opacity="0.44">
<path opacity="0.44" d="M162.671 183.154C162.671 183.66 162.263 184.07 161.762 184.07H146.381C145.879 184.07 145.471 183.66 145.471 183.154V176.65C145.471 176.145 145.879 175.735 146.381 175.735H161.762C162.263 175.735 162.671 176.145 162.671 176.65V183.154Z" fill="#F1F2F2"/>
</g>
<g opacity="0.44">
<path opacity="0.44" d="M144.333 183.154C144.333 183.66 143.927 184.07 143.424 184.07H128.043C127.541 184.07 127.134 183.66 127.134 183.154V176.65C127.134 176.145 127.542 175.735 128.043 175.735H143.424C143.927 175.735 144.333 176.145 144.333 176.65V183.154Z" fill="#F1F2F2"/>
</g>
<g opacity="0.44">
<path opacity="0.44" d="M125.996 183.154C125.996 183.66 125.589 184.07 125.087 184.07H109.707C109.204 184.07 108.797 183.66 108.797 183.154V176.65C108.797 176.145 109.204 175.735 109.707 175.735H125.087C125.59 175.735 125.996 176.145 125.996 176.65V183.154Z" fill="#F1F2F2"/>
</g>
<g opacity="0.44">
<path opacity="0.44" d="M107.658 183.154C107.658 183.66 107.252 184.07 106.748 184.07H91.3691C90.866 184.07 90.4597 183.66 90.4597 183.154V176.65C90.4597 176.145 90.8662 175.735 91.3691 175.735H106.748C107.252 175.735 107.658 176.145 107.658 176.65V183.154Z" fill="#F1F2F2"/>
</g>
<g opacity="0.44">
<path opacity="0.44" d="M89.3219 183.154C89.3219 183.66 88.9139 184.07 88.411 184.07H73.0314C72.5283 184.07 72.1221 183.66 72.1221 183.154V176.65C72.1221 176.145 72.5285 175.735 73.0314 175.735H88.411C88.9142 175.735 89.3219 176.145 89.3219 176.65V183.154Z" fill="#F1F2F2"/>
</g>
<g opacity="0.44">
<path opacity="0.44" d="M70.9844 183.154C70.9844 183.66 70.5763 184.07 70.075 184.07H54.6938C54.1925 184.07 53.7844 183.66 53.7844 183.154V176.65C53.7844 176.145 54.1925 175.735 54.6938 175.735H70.075C70.5763 175.735 70.9844 176.145 70.9844 176.65V183.154Z" fill="#F1F2F2"/>
</g>
<g opacity="0.44">
<path opacity="0.44" d="M52.6466 183.154C52.6466 183.66 52.2387 184.07 51.7372 184.07H36.3562C35.8545 184.07 35.4468 183.66 35.4468 183.154V176.65C35.4468 176.145 35.8547 175.735 36.3562 175.735H51.7372C52.2389 175.735 52.6466 176.145 52.6466 176.65V183.154Z" fill="#F1F2F2"/>
</g>
<g opacity="0.44">
<path opacity="0.44" d="M217.684 164.245C217.684 164.751 217.277 165.16 216.775 165.16H201.392C200.892 165.16 200.485 164.751 200.485 164.245V157.741C200.485 157.235 200.892 156.823 201.392 156.823H216.775C217.277 156.823 217.684 157.235 217.684 157.741V164.245H217.684Z" fill="#F1F2F2"/>
</g>
<g opacity="0.44">
<path opacity="0.44" d="M199.345 164.245C199.345 164.751 198.938 165.16 198.435 165.16H183.056C182.553 165.16 182.146 164.751 182.146 164.245V157.741C182.146 157.235 182.553 156.823 183.056 156.823H198.435C198.938 156.823 199.345 157.235 199.345 157.741V164.245Z" fill="#F1F2F2"/>
</g>
<g opacity="0.44">
<path opacity="0.44" d="M181.009 164.245C181.009 164.751 180.602 165.16 180.099 165.16H164.718C164.217 165.16 163.808 164.751 163.808 164.245V157.741C163.808 157.235 164.216 156.823 164.718 156.823H180.099C180.602 156.823 181.009 157.235 181.009 157.741V164.245Z" fill="#F1F2F2"/>
</g>
<g opacity="0.44">
<path opacity="0.44" d="M162.671 164.245C162.671 164.751 162.263 165.16 161.762 165.16H146.381C145.879 165.16 145.471 164.751 145.471 164.245V157.741C145.471 157.235 145.879 156.823 146.381 156.823H161.762C162.263 156.823 162.671 157.235 162.671 157.741V164.245Z" fill="#F1F2F2"/>
</g>
<g opacity="0.44">
<path opacity="0.44" d="M144.333 164.245C144.333 164.751 143.927 165.16 143.424 165.16H128.043C127.541 165.16 127.134 164.751 127.134 164.245V157.741C127.134 157.235 127.542 156.823 128.043 156.823H143.424C143.927 156.823 144.333 157.235 144.333 157.741V164.245Z" fill="#F1F2F2"/>
</g>
<g opacity="0.44">
<path opacity="0.44" d="M125.996 164.245C125.996 164.751 125.589 165.16 125.087 165.16H109.707C109.204 165.16 108.797 164.751 108.797 164.245V157.741C108.797 157.235 109.204 156.823 109.707 156.823H125.087C125.59 156.823 125.996 157.235 125.996 157.741V164.245Z" fill="#F1F2F2"/>
</g>
<g opacity="0.44">
<path opacity="0.44" d="M107.658 164.245C107.658 164.751 107.252 165.16 106.748 165.16H91.3691C90.866 165.16 90.4597 164.751 90.4597 164.245V157.741C90.4597 157.235 90.8662 156.823 91.3691 156.823H106.748C107.252 156.823 107.658 157.235 107.658 157.741V164.245Z" fill="#F1F2F2"/>
</g>
<g opacity="0.44">
<path opacity="0.44" d="M89.3219 164.245C89.3219 164.751 88.9139 165.16 88.411 165.16H73.0314C72.5283 165.16 72.1221 164.751 72.1221 164.245V157.741C72.1221 157.235 72.5285 156.823 73.0314 156.823H88.411C88.9142 156.823 89.3219 157.235 89.3219 157.741V164.245Z" fill="#F1F2F2"/>
</g>
<g opacity="0.44">
<path opacity="0.44" d="M70.9844 164.245C70.9844 164.751 70.5763 165.16 70.075 165.16H54.6938C54.1925 165.16 53.7844 164.751 53.7844 164.245V157.741C53.7844 157.235 54.1925 156.823 54.6938 156.823H70.075C70.5763 156.823 70.9844 157.235 70.9844 157.741V164.245Z" fill="#F1F2F2"/>
</g>
<g opacity="0.44">
<path opacity="0.44" d="M52.6466 164.245C52.6466 164.751 52.2387 165.16 51.7372 165.16H36.3562C35.8545 165.16 35.4468 164.751 35.4468 164.245V157.741C35.4468 157.235 35.8547 156.823 36.3562 156.823H51.7372C52.2389 156.823 52.6466 157.235 52.6466 157.741V164.245Z" fill="#F1F2F2"/>
</g>
<g opacity="0.44">
<path opacity="0.44" d="M217.684 145.333C217.684 145.838 217.277 146.251 216.775 146.251H201.392C200.892 146.251 200.485 145.838 200.485 145.333V138.829C200.485 138.323 200.892 137.913 201.392 137.913H216.775C217.277 137.913 217.684 138.323 217.684 138.829V145.333H217.684Z" fill="#F1F2F2"/>
</g>
<g opacity="0.44">
<path opacity="0.44" d="M199.345 145.333C199.345 145.838 198.938 146.251 198.435 146.251H183.056C182.553 146.251 182.146 145.838 182.146 145.333V138.829C182.146 138.323 182.553 137.913 183.056 137.913H198.435C198.938 137.913 199.345 138.323 199.345 138.829V145.333Z" fill="#F1F2F2"/>
</g>
<g opacity="0.44">
<path opacity="0.44" d="M181.009 145.333C181.009 145.838 180.602 146.251 180.099 146.251H164.718C164.217 146.251 163.808 145.838 163.808 145.333V138.829C163.808 138.323 164.216 137.913 164.718 137.913H180.099C180.602 137.913 181.009 138.323 181.009 138.829V145.333Z" fill="#F1F2F2"/>
</g>
<g opacity="0.44">
<path opacity="0.44" d="M162.671 145.333C162.671 145.838 162.263 146.251 161.762 146.251H146.381C145.879 146.251 145.471 145.838 145.471 145.333V138.829C145.471 138.323 145.879 137.913 146.381 137.913H161.762C162.263 137.913 162.671 138.323 162.671 138.829V145.333Z" fill="#F1F2F2"/>
</g>
<g opacity="0.44">
<path opacity="0.44" d="M144.333 145.333C144.333 145.838 143.927 146.251 143.424 146.251H128.043C127.541 146.251 127.134 145.838 127.134 145.333V138.829C127.134 138.323 127.542 137.913 128.043 137.913H143.424C143.927 137.913 144.333 138.323 144.333 138.829V145.333Z" fill="#F1F2F2"/>
</g>
<g opacity="0.44">
<path opacity="0.44" d="M125.996 145.333C125.996 145.838 125.589 146.251 125.087 146.251H109.707C109.204 146.251 108.797 145.838 108.797 145.333V138.829C108.797 138.323 109.204 137.913 109.707 137.913H125.087C125.59 137.913 125.996 138.323 125.996 138.829V145.333Z" fill="#F1F2F2"/>
</g>
<g opacity="0.44">
<path opacity="0.44" d="M107.658 145.333C107.658 145.838 107.252 146.251 106.748 146.251H91.3691C90.866 146.251 90.4597 145.838 90.4597 145.333V138.829C90.4597 138.323 90.8662 137.913 91.3691 137.913H106.748C107.252 137.913 107.658 138.323 107.658 138.829V145.333Z" fill="#F1F2F2"/>
</g>
<g opacity="0.44">
<path opacity="0.44" d="M89.3219 145.333C89.3219 145.838 88.9139 146.251 88.411 146.251H73.0314C72.5283 146.251 72.1221 145.838 72.1221 145.333V138.829C72.1221 138.323 72.5285 137.913 73.0314 137.913H88.411C88.9142 137.913 89.3219 138.323 89.3219 138.829V145.333Z" fill="#F1F2F2"/>
</g>
<g opacity="0.44">
<path opacity="0.44" d="M70.9844 145.333C70.9844 145.838 70.5763 146.251 70.075 146.251H54.6938C54.1925 146.251 53.7844 145.838 53.7844 145.333V138.829C53.7844 138.323 54.1925 137.913 54.6938 137.913H70.075C70.5763 137.913 70.9844 138.323 70.9844 138.829V145.333Z" fill="#F1F2F2"/>
</g>
<g opacity="0.44">
<path opacity="0.44" d="M52.6466 145.333C52.6466 145.838 52.2387 146.251 51.7372 146.251H36.3562C35.8545 146.251 35.4468 145.838 35.4468 145.333V138.829C35.4468 138.323 35.8547 137.913 36.3562 137.913H51.7372C52.2389 137.913 52.6466 138.323 52.6466 138.829V145.333Z" fill="#F1F2F2"/>
</g>
<g opacity="0.44">
<path opacity="0.44" d="M217.684 126.423C217.684 126.929 217.277 127.338 216.775 127.338H201.392C200.892 127.338 200.485 126.929 200.485 126.423V119.919C200.485 119.413 200.892 119.001 201.392 119.001H216.775C217.277 119.001 217.684 119.413 217.684 119.919V126.423H217.684Z" fill="#F1F2F2"/>
</g>
<g opacity="0.44">
<path opacity="0.44" d="M199.345 126.423C199.345 126.929 198.938 127.338 198.435 127.338H183.056C182.553 127.338 182.146 126.929 182.146 126.423V119.919C182.146 119.413 182.553 119.001 183.056 119.001H198.435C198.938 119.001 199.345 119.413 199.345 119.919V126.423Z" fill="#F1F2F2"/>
</g>
<g opacity="0.44">
<path opacity="0.44" d="M181.009 126.423C181.009 126.929 180.602 127.338 180.099 127.338H164.718C164.217 127.338 163.808 126.929 163.808 126.423V119.919C163.808 119.413 164.216 119.001 164.718 119.001H180.099C180.602 119.001 181.009 119.413 181.009 119.919V126.423Z" fill="#F1F2F2"/>
</g>
<g opacity="0.44">
<path opacity="0.44" d="M162.671 126.423C162.671 126.929 162.263 127.338 161.762 127.338H146.381C145.879 127.338 145.471 126.929 145.471 126.423V119.919C145.471 119.413 145.879 119.001 146.381 119.001H161.762C162.263 119.001 162.671 119.413 162.671 119.919V126.423Z" fill="#F1F2F2"/>
</g>
<g opacity="0.44">
<path opacity="0.44" d="M144.333 126.423C144.333 126.929 143.927 127.338 143.424 127.338H128.043C127.541 127.338 127.134 126.929 127.134 126.423V119.919C127.134 119.413 127.542 119.001 128.043 119.001H143.424C143.927 119.001 144.333 119.413 144.333 119.919V126.423Z" fill="#F1F2F2"/>
</g>
<g opacity="0.44">
<path opacity="0.44" d="M125.996 126.423C125.996 126.929 125.589 127.338 125.087 127.338H109.707C109.204 127.338 108.797 126.929 108.797 126.423V119.919C108.797 119.413 109.204 119.001 109.707 119.001H125.087C125.59 119.001 125.996 119.413 125.996 119.919V126.423Z" fill="#F1F2F2"/>
</g>
<g opacity="0.44">
<path opacity="0.44" d="M107.658 126.423C107.658 126.929 107.252 127.338 106.748 127.338H91.3691C90.866 127.338 90.4597 126.929 90.4597 126.423V119.919C90.4597 119.413 90.8662 119.001 91.3691 119.001H106.748C107.252 119.001 107.658 119.413 107.658 119.919V126.423Z" fill="#F1F2F2"/>
</g>
<g opacity="0.44">
<path opacity="0.44" d="M89.3219 126.423C89.3219 126.929 88.9139 127.338 88.411 127.338H73.0314C72.5283 127.338 72.1221 126.929 72.1221 126.423V119.919C72.1221 119.413 72.5285 119.001 73.0314 119.001H88.411C88.9142 119.001 89.3219 119.413 89.3219 119.919V126.423Z" fill="#F1F2F2"/>
</g>
<g opacity="0.44">
<path opacity="0.44" d="M70.9844 126.423C70.9844 126.929 70.5763 127.338 70.075 127.338H54.6938C54.1925 127.338 53.7844 126.929 53.7844 126.423V119.919C53.7844 119.413 54.1925 119.001 54.6938 119.001H70.075C70.5763 119.001 70.9844 119.413 70.9844 119.919V126.423Z" fill="#F1F2F2"/>
</g>
<g opacity="0.44">
<path opacity="0.44" d="M52.6466 126.423C52.6466 126.929 52.2387 127.338 51.7372 127.338H36.3562C35.8545 127.338 35.4468 126.929 35.4468 126.423V119.919C35.4468 119.413 35.8547 119.001 36.3562 119.001H51.7372C52.2389 119.001 52.6466 119.413 52.6466 119.919V126.423Z" fill="#F1F2F2"/>
</g>
<g opacity="0.44">
<path opacity="0.44" d="M217.684 107.511C217.684 108.017 217.277 108.429 216.775 108.429H201.392C200.892 108.429 200.485 108.017 200.485 107.511V101.007C200.485 100.501 200.892 100.092 201.392 100.092H216.775C217.277 100.092 217.684 100.501 217.684 101.007V107.511H217.684Z" fill="#F1F2F2"/>
</g>
<g opacity="0.44">
<path opacity="0.44" d="M199.345 107.511C199.345 108.017 198.938 108.429 198.435 108.429H183.056C182.553 108.429 182.146 108.017 182.146 107.511V101.007C182.146 100.501 182.553 100.092 183.056 100.092H198.435C198.938 100.092 199.345 100.501 199.345 101.007V107.511Z" fill="#F1F2F2"/>
</g>
<g opacity="0.44">
<path opacity="0.44" d="M181.009 107.511C181.009 108.017 180.602 108.429 180.099 108.429H164.718C164.217 108.429 163.808 108.017 163.808 107.511V101.007C163.808 100.501 164.216 100.092 164.718 100.092H180.099C180.602 100.092 181.009 100.501 181.009 101.007V107.511Z" fill="#F1F2F2"/>
</g>
<g opacity="0.44">
<path opacity="0.44" d="M162.671 107.511C162.671 108.017 162.263 108.429 161.762 108.429H146.381C145.879 108.429 145.471 108.017 145.471 107.511V101.007C145.471 100.501 145.879 100.092 146.381 100.092H161.762C162.263 100.092 162.671 100.501 162.671 101.007V107.511Z" fill="#F1F2F2"/>
</g>
<g opacity="0.44">
<path opacity="0.44" d="M144.333 107.511C144.333 108.017 143.927 108.429 143.424 108.429H128.043C127.541 108.429 127.134 108.017 127.134 107.511V101.007C127.134 100.501 127.542 100.092 128.043 100.092H143.424C143.927 100.092 144.333 100.501 144.333 101.007V107.511Z" fill="#F1F2F2"/>
</g>
<g opacity="0.44">
<path opacity="0.44" d="M125.996 107.511C125.996 108.017 125.589 108.429 125.087 108.429H109.707C109.204 108.429 108.797 108.017 108.797 107.511V101.007C108.797 100.501 109.204 100.092 109.707 100.092H125.087C125.59 100.092 125.996 100.501 125.996 101.007V107.511Z" fill="#F1F2F2"/>
</g>
<g opacity="0.44">
<path opacity="0.44" d="M107.658 107.511C107.658 108.017 107.252 108.429 106.748 108.429H91.3691C90.866 108.429 90.4597 108.017 90.4597 107.511V101.007C90.4597 100.501 90.8662 100.092 91.3691 100.092H106.748C107.252 100.092 107.658 100.501 107.658 101.007V107.511Z" fill="#F1F2F2"/>
</g>
<g opacity="0.44">
<path opacity="0.44" d="M89.3219 107.511C89.3219 108.017 88.9139 108.429 88.411 108.429H73.0314C72.5283 108.429 72.1221 108.017 72.1221 107.511V101.007C72.1221 100.501 72.5285 100.092 73.0314 100.092H88.411C88.9142 100.092 89.3219 100.501 89.3219 101.007V107.511Z" fill="#F1F2F2"/>
</g>
<g opacity="0.44">
<path opacity="0.44" d="M70.9844 107.511C70.9844 108.017 70.5763 108.429 70.075 108.429H54.6938C54.1925 108.429 53.7844 108.017 53.7844 107.511V101.007C53.7844 100.501 54.1925 100.092 54.6938 100.092H70.075C70.5763 100.092 70.9844 100.501 70.9844 101.007V107.511Z" fill="#F1F2F2"/>
</g>
<g opacity="0.44">
<path opacity="0.44" d="M52.6466 107.511C52.6466 108.017 52.2387 108.429 51.7372 108.429H36.3562C35.8545 108.429 35.4468 108.017 35.4468 107.511V101.007C35.4468 100.501 35.8547 100.092 36.3562 100.092H51.7372C52.2389 100.092 52.6466 100.501 52.6466 101.007V107.511Z" fill="#F1F2F2"/>
</g>
<g opacity="0.44">
<path opacity="0.44" d="M217.684 88.6016C217.684 89.1075 217.277 89.5168 216.775 89.5168H201.392C200.892 89.5168 200.485 89.1075 200.485 88.6016V82.0977C200.485 81.5917 200.892 81.1796 201.392 81.1796H216.775C217.277 81.1796 217.684 81.5917 217.684 82.0977V88.6016H217.684Z" fill="#F1F2F2"/>
</g>
<g opacity="0.44">
<path opacity="0.44" d="M199.345 88.6016C199.345 89.1075 198.938 89.5168 198.435 89.5168H183.056C182.553 89.5168 182.146 89.1075 182.146 88.6016V82.0977C182.146 81.5917 182.553 81.1796 183.056 81.1796H198.435C198.938 81.1796 199.345 81.5917 199.345 82.0977V88.6016Z" fill="#F1F2F2"/>
</g>
<g opacity="0.44">
<path opacity="0.44" d="M181.009 88.6016C181.009 89.1075 180.602 89.5168 180.099 89.5168H164.718C164.217 89.5168 163.808 89.1075 163.808 88.6016V82.0977C163.808 81.5917 164.216 81.1796 164.718 81.1796H180.099C180.602 81.1796 181.009 81.5917 181.009 82.0977V88.6016Z" fill="#F1F2F2"/>
</g>
<g opacity="0.44">
<path opacity="0.44" d="M162.671 88.6016C162.671 89.1075 162.263 89.5168 161.762 89.5168H146.381C145.879 89.5168 145.471 89.1075 145.471 88.6016V82.0977C145.471 81.5917 145.879 81.1796 146.381 81.1796H161.762C162.263 81.1796 162.671 81.5917 162.671 82.0977V88.6016Z" fill="#F1F2F2"/>
</g>
<g opacity="0.44">
<path opacity="0.44" d="M144.333 88.6016C144.333 89.1075 143.927 89.5168 143.424 89.5168H128.043C127.541 89.5168 127.134 89.1075 127.134 88.6016V82.0977C127.134 81.5917 127.542 81.1796 128.043 81.1796H143.424C143.927 81.1796 144.333 81.5917 144.333 82.0977V88.6016Z" fill="#F1F2F2"/>
</g>
<g opacity="0.44">
<path opacity="0.44" d="M125.996 88.6016C125.996 89.1075 125.589 89.5168 125.087 89.5168H109.707C109.204 89.5168 108.797 89.1075 108.797 88.6016V82.0977C108.797 81.5917 109.204 81.1796 109.707 81.1796H125.087C125.59 81.1796 125.996 81.5917 125.996 82.0977V88.6016Z" fill="#F1F2F2"/>
</g>
<g opacity="0.44">
<path opacity="0.44" d="M107.658 88.6016C107.658 89.1075 107.252 89.5168 106.748 89.5168H91.3691C90.866 89.5168 90.4597 89.1075 90.4597 88.6016V82.0977C90.4597 81.5917 90.8662 81.1796 91.3691 81.1796H106.748C107.252 81.1796 107.658 81.5917 107.658 82.0977V88.6016Z" fill="#F1F2F2"/>
</g>
<g opacity="0.44">
<path opacity="0.44" d="M89.3219 88.6016C89.3219 89.1075 88.9139 89.5168 88.411 89.5168H73.0314C72.5283 89.5168 72.1221 89.1075 72.1221 88.6016V82.0977C72.1221 81.5917 72.5285 81.1796 73.0314 81.1796H88.411C88.9142 81.1796 89.3219 81.5917 89.3219 82.0977V88.6016Z" fill="#F1F2F2"/>
</g>
<g opacity="0.44">
<path opacity="0.44" d="M70.9844 88.6016C70.9844 89.1075 70.5763 89.5168 70.075 89.5168H54.6938C54.1925 89.5168 53.7844 89.1075 53.7844 88.6016V82.0977C53.7844 81.5917 54.1925 81.1796 54.6938 81.1796H70.075C70.5763 81.1796 70.9844 81.5917 70.9844 82.0977V88.6016Z" fill="#F1F2F2"/>
</g>
<g opacity="0.44">
<path opacity="0.44" d="M52.6466 88.6016C52.6466 89.1075 52.2387 89.5168 51.7372 89.5168H36.3562C35.8545 89.5168 35.4468 89.1075 35.4468 88.6016V82.0977C35.4468 81.5917 35.8547 81.1796 36.3562 81.1796H51.7372C52.2389 81.1796 52.6466 81.5917 52.6466 82.0977V88.6016Z" fill="#F1F2F2"/>
</g>
<g opacity="0.44">
<path opacity="0.44" d="M217.684 69.6891C217.684 70.1952 217.277 70.6077 216.775 70.6077H201.392C200.892 70.6077 200.485 70.1954 200.485 69.6891V63.1854C200.485 62.6793 200.892 62.27 201.392 62.27H216.775C217.277 62.27 217.684 62.6793 217.684 63.1854V69.6891H217.684Z" fill="#F1F2F2"/>
</g>
<g opacity="0.44">
<path opacity="0.44" d="M199.345 69.6891C199.345 70.1952 198.938 70.6077 198.435 70.6077H183.056C182.553 70.6077 182.146 70.1954 182.146 69.6891V63.1854C182.146 62.6793 182.553 62.27 183.056 62.27H198.435C198.938 62.27 199.345 62.6793 199.345 63.1854V69.6891Z" fill="#F1F2F2"/>
</g>
<g opacity="0.44">
<path opacity="0.44" d="M181.009 69.6891C181.009 70.1952 180.602 70.6077 180.099 70.6077H164.718C164.217 70.6077 163.808 70.1954 163.808 69.6891V63.1854C163.808 62.6793 164.216 62.27 164.718 62.27H180.099C180.602 62.27 181.009 62.6793 181.009 63.1854V69.6891Z" fill="#F1F2F2"/>
</g>
<g opacity="0.44">
<path opacity="0.44" d="M162.671 69.6891C162.671 70.1952 162.263 70.6077 161.762 70.6077H146.381C145.879 70.6077 145.471 70.1954 145.471 69.6891V63.1854C145.471 62.6793 145.879 62.27 146.381 62.27H161.762C162.263 62.27 162.671 62.6793 162.671 63.1854V69.6891Z" fill="#F1F2F2"/>
</g>
<g opacity="0.44">
<path opacity="0.44" d="M144.333 69.6891C144.333 70.1952 143.927 70.6077 143.424 70.6077H128.043C127.541 70.6077 127.134 70.1954 127.134 69.6891V63.1854C127.134 62.6793 127.542 62.27 128.043 62.27H143.424C143.927 62.27 144.333 62.6793 144.333 63.1854V69.6891Z" fill="#F1F2F2"/>
</g>
<g opacity="0.44">
<path opacity="0.44" d="M125.996 69.6891C125.996 70.1952 125.589 70.6077 125.087 70.6077H109.707C109.204 70.6077 108.797 70.1954 108.797 69.6891V63.1854C108.797 62.6793 109.204 62.27 109.707 62.27H125.087C125.59 62.27 125.996 62.6793 125.996 63.1854V69.6891Z" fill="#F1F2F2"/>
</g>
<g opacity="0.44">
<path opacity="0.44" d="M107.658 69.6891C107.658 70.1952 107.252 70.6077 106.748 70.6077H91.3691C90.866 70.6077 90.4597 70.1954 90.4597 69.6891V63.1854C90.4597 62.6793 90.8662 62.27 91.3691 62.27H106.748C107.252 62.27 107.658 62.6793 107.658 63.1854V69.6891Z" fill="#F1F2F2"/>
</g>
<g opacity="0.44">
<path opacity="0.44" d="M89.3219 69.6891C89.3219 70.1952 88.9139 70.6077 88.411 70.6077H73.0314C72.5283 70.6077 72.1221 70.1954 72.1221 69.6891V63.1854C72.1221 62.6793 72.5285 62.27 73.0314 62.27H88.411C88.9142 62.27 89.3219 62.6793 89.3219 63.1854V69.6891Z" fill="#F1F2F2"/>
</g>
<g opacity="0.44">
<path opacity="0.44" d="M70.9844 69.6891C70.9844 70.1952 70.5763 70.6077 70.075 70.6077H54.6938C54.1925 70.6077 53.7844 70.1954 53.7844 69.6891V63.1854C53.7844 62.6793 54.1925 62.27 54.6938 62.27H70.075C70.5763 62.27 70.9844 62.6793 70.9844 63.1854V69.6891Z" fill="#F1F2F2"/>
</g>
<g opacity="0.44">
<path opacity="0.44" d="M52.6466 69.6891C52.6466 70.1952 52.2387 70.6077 51.7372 70.6077H36.3562C35.8545 70.6077 35.4468 70.1954 35.4468 69.6891V63.1854C35.4468 62.6793 35.8547 62.27 36.3562 62.27H51.7372C52.2389 62.27 52.6466 62.6793 52.6466 63.1854V69.6891Z" fill="#F1F2F2"/>
</g>
<g opacity="0.44">
<path opacity="0.44" d="M217.684 50.78C217.684 51.2858 217.277 51.6952 216.775 51.6952H201.392C200.892 51.6952 200.485 51.2858 200.485 50.78V44.276C200.485 43.7702 200.892 43.3594 201.392 43.3594H216.775C217.277 43.3594 217.684 43.7702 217.684 44.276V50.78H217.684Z" fill="#F1F2F2"/>
</g>
<g opacity="0.44">
<path opacity="0.44" d="M199.345 50.78C199.345 51.2858 198.938 51.6952 198.435 51.6952H183.056C182.553 51.6952 182.146 51.2858 182.146 50.78V44.276C182.146 43.7702 182.553 43.3594 183.056 43.3594H198.435C198.938 43.3594 199.345 43.7702 199.345 44.276V50.78Z" fill="#F1F2F2"/>
</g>
<g opacity="0.44">
<path opacity="0.44" d="M181.009 50.78C181.009 51.2858 180.602 51.6952 180.099 51.6952H164.718C164.217 51.6952 163.808 51.2858 163.808 50.78V44.276C163.808 43.7702 164.216 43.3594 164.718 43.3594H180.099C180.602 43.3594 181.009 43.7702 181.009 44.276V50.78Z" fill="#F1F2F2"/>
</g>
<g opacity="0.44">
<path opacity="0.44" d="M162.671 50.78C162.671 51.2858 162.263 51.6952 161.762 51.6952H146.381C145.879 51.6952 145.471 51.2858 145.471 50.78V44.276C145.471 43.7702 145.879 43.3594 146.381 43.3594H161.762C162.263 43.3594 162.671 43.7702 162.671 44.276V50.78Z" fill="#F1F2F2"/>
</g>
<g opacity="0.44">
<path opacity="0.44" d="M144.333 50.78C144.333 51.2858 143.927 51.6952 143.424 51.6952H128.043C127.541 51.6952 127.134 51.2858 127.134 50.78V44.276C127.134 43.7702 127.542 43.3594 128.043 43.3594H143.424C143.927 43.3594 144.333 43.7702 144.333 44.276V50.78Z" fill="#F1F2F2"/>
</g>
<g opacity="0.44">
<path opacity="0.44" d="M125.996 50.78C125.996 51.2858 125.589 51.6952 125.087 51.6952H109.707C109.204 51.6952 108.797 51.2858 108.797 50.78V44.276C108.797 43.7702 109.204 43.3594 109.707 43.3594H125.087C125.59 43.3594 125.996 43.7702 125.996 44.276V50.78Z" fill="#F1F2F2"/>
</g>
<g opacity="0.44">
<path opacity="0.44" d="M107.658 50.78C107.658 51.2858 107.252 51.6952 106.748 51.6952H91.3691C90.866 51.6952 90.4597 51.2858 90.4597 50.78V44.276C90.4597 43.7702 90.8662 43.3594 91.3691 43.3594H106.748C107.252 43.3594 107.658 43.7702 107.658 44.276V50.78Z" fill="#F1F2F2"/>
</g>
<g opacity="0.44">
<path opacity="0.44" d="M89.3219 50.78C89.3219 51.2858 88.9139 51.6952 88.411 51.6952H73.0314C72.5283 51.6952 72.1221 51.2858 72.1221 50.78V44.276C72.1221 43.7702 72.5285 43.3594 73.0314 43.3594H88.411C88.9142 43.3594 89.3219 43.7702 89.3219 44.276V50.78Z" fill="#F1F2F2"/>
</g>
<g opacity="0.44">
<path opacity="0.44" d="M70.9844 50.78C70.9844 51.2858 70.5763 51.6952 70.075 51.6952H54.6938C54.1925 51.6952 53.7844 51.2858 53.7844 50.78V44.276C53.7844 43.7702 54.1925 43.3594 54.6938 43.3594H70.075C70.5763 43.3594 70.9844 43.7702 70.9844 44.276V50.78Z" fill="#F1F2F2"/>
</g>
<g opacity="0.44">
<path opacity="0.44" d="M52.6466 50.78C52.6466 51.2858 52.2387 51.6952 51.7372 51.6952H36.3562C35.8545 51.6952 35.4468 51.2858 35.4468 50.78V44.276C35.4468 43.7702 35.8547 43.3594 36.3562 43.3594H51.7372C52.2389 43.3594 52.6466 43.7702 52.6466 44.276V50.78Z" fill="#F1F2F2"/>
</g>
</g>
</g>
<path d="M114.588 74.0067C113.45 75.3786 113.552 77.3798 113.566 77.598C113.646 78.8952 114.185 79.8773 114.572 80.4744C118.357 86.3165 124.277 89.5975 124.277 89.5975C126.587 91.5023 129.111 93.4523 131.854 95.4019C135.317 97.8627 138.674 99.9977 141.845 101.849C142.43 98.6642 143.015 95.4798 143.601 92.2954C138.8 88.3705 134.912 85.1582 131.937 82.8034C130.25 81.4682 128.385 79.9402 126.598 77.3486C125.468 75.7103 125.761 75.6069 125.037 74.8398C122.42 72.0661 116.727 71.4296 114.588 74.0067Z" fill="#AD4328"/>
<path opacity="0.12" d="M114.588 74.0067C113.45 75.3786 113.552 77.3798 113.566 77.598C113.646 78.8952 114.185 79.8773 114.572 80.4744C118.357 86.3165 124.277 89.5975 124.277 89.5975C126.587 91.5023 129.111 93.4523 131.854 95.4019C135.317 97.8627 138.674 99.9977 141.845 101.849C142.43 98.6642 143.015 95.4798 143.601 92.2954C138.8 88.3705 134.912 85.1582 131.937 82.8034C130.25 81.4682 128.385 79.9402 126.598 77.3486C125.468 75.7103 125.761 75.6069 125.037 74.8398C122.42 72.0661 116.727 71.4296 114.588 74.0067Z" fill="black"/>
<path d="M99.1235 47.3477C101.94 47.3477 104.223 45.0647 104.223 42.2484C104.223 39.4321 101.94 37.149 99.1235 37.149C96.3072 37.149 94.0242 39.4321 94.0242 42.2484C94.0242 45.0647 96.3072 47.3477 99.1235 47.3477Z" fill="#0B4870"/>
<path d="M104.223 45.5827C107.039 45.5827 109.322 43.2997 109.322 40.4833C109.322 37.667 107.039 35.384 104.223 35.384C101.407 35.384 99.1235 37.667 99.1235 40.4833C99.1235 43.2997 101.407 45.5827 104.223 45.5827Z" fill="#0B4870"/>
<path d="M109.322 48.5246C112.139 48.5246 114.422 46.2415 114.422 43.4252C114.422 40.6089 112.139 38.3259 109.322 38.3259C106.506 38.3259 104.223 40.6089 104.223 43.4252C104.223 46.2415 106.506 48.5246 109.322 48.5246Z" fill="#0B4870"/>
<path d="M114.422 52.4471C117.238 52.4471 119.521 50.164 119.521 47.3477C119.521 44.5314 117.238 42.2484 114.422 42.2484C111.605 42.2484 109.322 44.5314 109.322 47.3477C109.322 50.164 111.605 52.4471 114.422 52.4471Z" fill="#0B4870"/>
<path d="M118.148 58.7233C120.965 58.7233 123.248 56.4403 123.248 53.624C123.248 50.8077 120.965 48.5246 118.148 48.5246C115.332 48.5246 113.049 50.8077 113.049 53.624C113.049 56.4403 115.332 58.7233 118.148 58.7233Z" fill="#0B4870"/>
<path d="M116.775 62.6458C119.591 62.6458 121.875 60.3628 121.875 57.5465C121.875 54.7301 119.591 52.4471 116.775 52.4471C113.959 52.4471 111.676 54.7301 111.676 57.5465C111.676 60.3628 113.959 62.6458 116.775 62.6458Z" fill="#0B4870"/>
<path d="M114.422 67.7452C117.238 67.7452 119.521 65.4621 119.521 62.6458C119.521 59.8295 117.238 57.5464 114.422 57.5464C111.605 57.5464 109.322 59.8295 109.322 62.6458C109.322 65.4621 111.605 67.7452 114.422 67.7452Z" fill="#0B4870"/>
<path d="M109.322 71.4777C112.139 71.4777 114.422 69.1947 114.422 66.3784C114.422 63.5621 112.139 61.279 109.322 61.279C106.506 61.279 104.223 63.5621 104.223 66.3784C104.223 69.1947 106.506 71.4777 109.322 71.4777Z" fill="#0B4870"/>
<path d="M105.596 72.8446C108.412 72.8446 110.695 70.5616 110.695 67.7452C110.695 64.9289 108.412 62.6459 105.596 62.6459C102.78 62.6459 100.497 64.9289 100.497 67.7452C100.497 70.5616 102.78 72.8446 105.596 72.8446Z" fill="#0B4870"/>
<path d="M103.046 72.8446C105.863 72.8446 108.146 70.5616 108.146 67.7452C108.146 64.9289 105.863 62.6459 103.046 62.6459C100.23 62.6459 97.947 64.9289 97.947 67.7452C97.947 70.5616 100.23 72.8446 103.046 72.8446Z" fill="#0B4870"/>
<path d="M104.811 67.7452C111.419 67.7452 116.775 62.3887 116.775 55.7812C116.775 49.1737 111.419 43.8173 104.811 43.8173C98.2039 43.8173 92.8474 49.1737 92.8474 55.7812C92.8474 62.3887 98.2039 67.7452 104.811 67.7452Z" fill="#0B4870"/>
<path d="M94.0244 52.4471C96.8407 52.4471 99.1238 50.164 99.1238 47.3477C99.1238 44.5314 96.8407 42.2484 94.0244 42.2484C91.2081 42.2484 88.925 44.5314 88.925 47.3477C88.925 50.164 91.2081 52.4471 94.0244 52.4471Z" fill="#0B4870"/>
<path d="M91.6707 57.5465C94.487 57.5465 96.7701 55.2634 96.7701 52.4471C96.7701 49.6308 94.487 47.3477 91.6707 47.3477C88.8544 47.3477 86.5713 49.6308 86.5713 52.4471C86.5713 55.2634 88.8544 57.5465 91.6707 57.5465Z" fill="#0B4870"/>
<path d="M90.8863 62.6458C93.7026 62.6458 95.9856 60.3628 95.9856 57.5465C95.9856 54.7301 93.7026 52.4471 90.8863 52.4471C88.0699 52.4471 85.7869 54.7301 85.7869 57.5465C85.7869 60.3628 88.0699 62.6458 90.8863 62.6458Z" fill="#0B4870"/>
<path d="M91.6707 69.3142C94.487 69.3142 96.7701 67.0311 96.7701 64.2148C96.7701 61.3985 94.487 59.1154 91.6707 59.1154C88.8544 59.1154 86.5713 61.3985 86.5713 64.2148C86.5713 67.0311 88.8544 69.3142 91.6707 69.3142Z" fill="#0B4870"/>
<path d="M95.9856 72.8446C98.8019 72.8446 101.085 70.5616 101.085 67.7452C101.085 64.9289 98.8019 62.6459 95.9856 62.6459C93.1693 62.6459 90.8862 64.9289 90.8862 67.7452C90.8862 70.5616 93.1693 72.8446 95.9856 72.8446Z" fill="#0B4870"/>
<path d="M100.648 65.5071C103.538 71.315 111.859 70.0348 111.859 70.0348L100.648 65.5071Z" fill="#EFB68F"/>
<path d="M102.407 75.1827C102.407 75.1827 92.9161 80.5984 91.0769 82.3336C91.0769 82.3336 107.726 94.2761 125.072 75.28C123.27 74.5931 122.975 74.6094 120.607 74.0733C117.551 73.3817 113.252 72.4836 110.911 72.379L102.407 75.1827Z" fill="#EFB68F"/>
<path d="M111.356 70.0917L111.52 74.4262L102.617 75.7733L99.1221 65.0958L101.239 64.6896L111.356 70.0917Z" fill="#EFB68F"/>
<path d="M96.4046 62.9736C96.964 63.995 97.9381 64.7557 99.1221 65.0961C102.476 66.0294 102.441 62.004 100.78 60.4884C98.8017 58.6811 94.9098 60.2288 96.4046 62.9736Z" fill="#EFB68F"/>
<path d="M100.857 76.2911C102.834 79.1032 106.398 80.2353 109.437 79.1061C112.042 78.1382 113.874 75.6525 114.114 72.7644C115.187 72.455 117.206 72.0248 119.696 72.4234C122.207 72.8253 124.002 73.8786 124.925 74.5115L133.168 123.219L104.148 127.738L90.8208 82.5559C91.9108 81.6421 93.1221 80.2236 94.6385 79.2877C96.9029 77.8902 99.0471 76.9427 100.857 76.2911Z" fill="#AD4328"/>
<path d="M140.696 135.904C139.027 139.082 133.812 140.283 132.475 140.873C132.063 141.055 130.691 141.348 127.957 141.978C125.851 142.463 123.652 142.928 121.329 143.369C119.985 143.624 118.663 143.859 117.365 144.076C114.039 144.631 114.204 144.06 112.785 144.157C110.791 144.293 110.864 144.999 106.318 142.342C102.866 138.321 103.394 127.826 102.61 122.526L132.057 116.654C134.5 121.215 136.511 129.975 140.696 135.904Z" fill="#0B4870"/>
<path d="M138.965 207.662L143.075 192.954L137.283 191.18L133.168 205.867L138.965 207.662Z" fill="#AD4328"/>
<path d="M132.433 206.092L131.366 210.82H150.151V210.682C150.151 209.593 149.525 208.601 148.542 208.133L139.824 204.654C139.51 204.505 139.108 204.511 138.869 204.763C137.742 205.953 136.505 207.889 133.065 205.788C132.816 205.636 132.489 205.805 132.433 206.092Z" fill="#0B4870"/>
<path d="M150.151 210.82H131.366V212.06H150.151V210.82Z" fill="#AD4328"/>
<path d="M147.11 158.605C150.16 156.627 151.064 152.572 149.144 149.485L137.313 130.465C135.08 126.875 130.129 125.424 126.311 127.241C125.43 128.095 123.971 129.734 123.01 132.224C121.929 135.024 122.022 137.484 122.156 138.736C127.589 144.956 133.023 151.177 138.455 157.397C140.638 159.897 144.326 160.411 147.11 158.605Z" fill="#0B4870"/>
<path d="M127.177 210.82L143.075 205.952L150.328 152.199C149.882 148.541 146.537 145.95 142.884 146.433C139.178 146.923 136.611 150.38 137.213 154.069L127.177 210.82Z" fill="#0B4870"/>
<path d="M77.3445 206.26L84.8584 192.965L90.2041 195.815L82.7084 209.099L77.3445 206.26Z" fill="#AD4328"/>
<path d="M106.906 164.453L95.7473 159.881L106.245 131.81C107.749 127.893 112.176 125.974 116.063 127.553C116.279 127.641 117.04 127.963 117.889 128.636C117.889 128.636 119.503 129.927 120.245 131.825C121.065 133.925 120.549 136.103 119.972 137.797C118.566 141.925 113.869 151.765 106.906 164.453Z" fill="#0B4870"/>
<path d="M90.8861 214.224L74.969 204.555L99.3925 150.243C100.745 146.815 104.635 145.15 108.048 146.537C111.512 147.944 113.126 151.936 111.614 155.354L90.8861 214.224Z" fill="#0B4870"/>
<path d="M85.5687 209.413L84.9802 214.224L67.2937 207.893L67.3402 207.763C67.707 206.738 68.631 206.015 69.7141 205.906L79.0945 205.569C79.4402 205.534 79.8175 205.676 79.9575 205.994C80.6175 207.493 81.1298 209.733 85.0762 208.914C85.3625 208.854 85.6131 209.124 85.5687 209.413Z" fill="#0B4870"/>
<path d="M66.8779 209.062L84.5642 215.393L84.9823 214.225L67.296 207.894L66.8779 209.062Z" fill="#AD4328"/>
<path d="M111.356 70.0919C111.111 70.649 110.714 71.2623 110.052 71.5831C107.976 72.5906 104.878 69.9444 103.633 68.8808C102.311 67.7515 101.346 66.5554 100.647 65.5075C101.275 66.1894 102.067 66.9185 111.356 70.0919Z" fill="#E0A882"/>
<path d="M96.6119 51.4157C99.1409 46.7363 106.357 44.5971 110.621 47.085C112.555 48.214 113.36 49.9915 114.548 52.6138C114.911 53.4155 117.539 59.4394 115.513 65.8413C114.729 68.319 113.791 69.1354 113.104 69.5338C111.719 70.3367 110.201 70.0829 108.807 69.8802C105.982 69.4692 104.04 68.1063 103.326 67.5932C99.9163 65.1421 93.2857 57.57 96.6119 51.4157Z" fill="#EFB68F"/>
<path d="M96.3666 61.1786C97.0447 61.1786 97.5943 60.6289 97.5943 59.9509C97.5943 59.2728 97.0447 58.7231 96.3666 58.7231C95.6886 58.7231 95.1389 59.2728 95.1389 59.9509C95.1389 60.6289 95.6886 61.1786 96.3666 61.1786Z" fill="#0B4870"/>
<path d="M97.6398 61.5707C98.1483 61.5707 98.5605 61.1585 98.5605 60.6501C98.5605 60.1416 98.1483 59.7294 97.6398 59.7294C97.1314 59.7294 96.7192 60.1416 96.7192 60.6501C96.7192 61.1585 97.1314 61.5707 97.6398 61.5707Z" fill="#0B4870"/>
<path d="M98.5608 62.1847C98.8997 62.1847 99.1745 61.9099 99.1745 61.5709C99.1745 61.2319 98.8997 60.9572 98.5608 60.9572C98.2218 60.9572 97.947 61.2319 97.947 61.5709C97.947 61.9099 98.2218 62.1847 98.5608 62.1847Z" fill="#0B4870"/>
<path d="M95.9857 59.434C96.7439 59.434 97.3586 58.8193 97.3586 58.0611C97.3586 57.3028 96.7439 56.6882 95.9857 56.6882C95.2275 56.6882 94.6128 57.3028 94.6128 58.0611C94.6128 58.8193 95.2275 59.434 95.9857 59.434Z" fill="#0B4870"/>
<path d="M95.7037 57.1542C96.462 57.1542 97.0766 56.5395 97.0766 55.7813C97.0766 55.0231 96.462 54.4084 95.7037 54.4084C94.9455 54.4084 94.3308 55.0231 94.3308 55.7813C94.3308 56.5395 94.9455 57.1542 95.7037 57.1542Z" fill="#0B4870"/>
<path d="M96.0707 54.9969C96.8289 54.9969 97.4436 54.3823 97.4436 53.624C97.4436 52.8658 96.8289 52.2511 96.0707 52.2511C95.3124 52.2511 94.6978 52.8658 94.6978 53.624C94.6978 54.3823 95.3124 54.9969 96.0707 54.9969Z" fill="#0B4870"/>
<path d="M96.7701 53.1915C97.5284 53.1915 98.143 52.5768 98.143 51.8186C98.143 51.0604 97.5284 50.4457 96.7701 50.4457C96.0119 50.4457 95.3972 51.0604 95.3972 51.8186C95.3972 52.5768 96.0119 53.1915 96.7701 53.1915Z" fill="#0B4870"/>
<path d="M97.9469 51.2705C98.7051 51.2705 99.3198 50.6558 99.3198 49.8976C99.3198 49.1393 98.7051 48.5247 97.9469 48.5247C97.1887 48.5247 96.574 49.1393 96.574 49.8976C96.574 50.6558 97.1887 51.2705 97.9469 51.2705Z" fill="#0B4870"/>
<path d="M99.3199 49.8976C100.078 49.8976 100.693 49.2829 100.693 48.5247C100.693 47.7664 100.078 47.1517 99.3199 47.1517C98.5617 47.1517 97.947 47.7664 97.947 48.5247C97.947 49.2829 98.5617 49.8976 99.3199 49.8976Z" fill="#0B4870"/>
<path d="M100.871 48.7207C101.629 48.7207 102.244 48.106 102.244 47.3478C102.244 46.5895 101.629 45.9749 100.871 45.9749C100.113 45.9749 99.498 46.5895 99.498 47.3478C99.498 48.106 100.113 48.7207 100.871 48.7207Z" fill="#0B4870"/>
<path d="M102.244 47.3477C103.002 47.3477 103.617 46.7331 103.617 45.9748C103.617 45.2166 103.002 44.6019 102.244 44.6019C101.486 44.6019 100.871 45.2166 100.871 45.9748C100.871 46.7331 101.486 47.3477 102.244 47.3477Z" fill="#0B4870"/>
<path d="M104.811 46.9557C105.57 46.9557 106.184 46.341 106.184 45.5828C106.184 44.8245 105.57 44.2098 104.811 44.2098C104.053 44.2098 103.438 44.8245 103.438 45.5828C103.438 46.341 104.053 46.9557 104.811 46.9557Z" fill="#0B4870"/>
<path d="M106.969 47.3477C107.727 47.3477 108.342 46.7331 108.342 45.9748C108.342 45.2166 107.727 44.6019 106.969 44.6019C106.21 44.6019 105.596 45.2166 105.596 45.9748C105.596 46.7331 106.21 47.3477 106.969 47.3477Z" fill="#0B4870"/>
<path d="M108.927 47.8484C109.685 47.8484 110.3 47.2337 110.3 46.4755C110.3 45.7172 109.685 45.1025 108.927 45.1025C108.168 45.1025 107.554 45.7172 107.554 46.4755C107.554 47.2337 108.168 47.8484 108.927 47.8484Z" fill="#0B4870"/>
<path d="M110.991 47.8484C111.749 47.8484 112.364 47.2337 112.364 46.4755C112.364 45.7172 111.749 45.1025 110.991 45.1025C110.233 45.1025 109.618 45.7172 109.618 46.4755C109.618 47.2337 110.233 47.8484 110.991 47.8484Z" fill="#0B4870"/>
<path d="M112.875 49.2213C113.633 49.2213 114.248 48.6066 114.248 47.8484C114.248 47.0901 113.633 46.4755 112.875 46.4755C112.116 46.4755 111.502 47.0901 111.502 47.8484C111.502 48.6066 112.116 49.2213 112.875 49.2213Z" fill="#0B4870"/>
<path d="M115.792 53.1896L100.695 59.6327H100.691L100.069 59.1231L115.715 52.4475L115.792 53.1896Z" fill="#AD4328"/>
<path opacity="0.06" d="M115.792 53.1896L100.695 59.6327H100.691L100.069 59.1231L115.715 52.4475L115.792 53.1896Z" fill="#191919"/>
<path d="M116.273 57.8956L111.987 59.9508L110.299 59.1152L109.32 61.2775L104.623 62.8342L100.695 59.6327L115.792 53.1896L116.273 57.8956Z" fill="#AD4328"/>
<path opacity="0.14" d="M104.658 57.9415L104.623 62.8342L108.075 61.6902V56.4529L104.658 57.9415Z" fill="white"/>
<path opacity="0.14" d="M111.987 54.8038V59.9508L115.128 58.4446V53.4975L111.987 54.8038Z" fill="white"/>
<path d="M97.7595 61.5223L101.552 60.3313L100.069 59.1234L96.3662 60.6502C96.4354 60.6486 96.7708 60.6481 97.0522 60.9086C97.3102 61.1473 97.7516 61.4463 97.7595 61.5223Z" fill="#AD4328"/>
<path opacity="0.15" d="M97.7595 61.5223L101.552 60.3313L100.069 59.1234L96.3662 60.6502C96.4354 60.6486 96.7708 60.6481 97.0522 60.9086C97.3102 61.1473 97.7516 61.4463 97.7595 61.5223Z" fill="#191919"/>
<path d="M111.188 65.0888L121.189 68.1781L148.847 112.621C152.537 118.551 160.592 119.9 166.013 115.497L191.554 94.75L169.452 76.1813L156.506 100.888L126.837 65.1615C125.53 63.5883 123.477 62.8423 121.465 63.21L111.188 65.0888Z" fill="#AD4328"/>
<path d="M138.237 88.6711C137.942 89.5058 138.12 89.9835 138.12 89.9835C137.437 90.4498 137.336 91.3323 137.899 91.9156L138.298 92.3287C138.819 92.8683 139.722 92.9535 140.354 92.5229L140.391 92.4981C140.833 92.4369 143.245 92.0606 144.462 90.0127C145.236 88.7094 145.582 86.6348 144.749 86.0867C144.03 85.6134 142.435 86.2811 141.041 87.8606L141.535 86.4173C141.598 86.2342 141.52 86.0354 141.342 85.9267C141.15 85.8096 140.894 85.8267 140.725 85.9677L139.389 87.0844C138.865 87.5217 138.452 88.0611 138.237 88.6711Z" fill="#F7C6A4"/>
<path d="M137.609 90.6273L117.283 102.154C115.532 103.163 115.189 105.317 116.555 106.729C117.789 108.004 119.942 108.164 121.387 107.088L139.606 92.7884L137.609 90.6273Z" fill="#F7C6A4"/>
<path d="M94.8077 93.4369C98.7739 96.4648 102.919 100.558 113.885 106.631C115.046 107.274 117.247 108.457 119.46 107.908C120.487 107.653 121.205 107.103 121.65 106.676C121.571 106.071 121.36 105.117 120.728 104.075C119.922 102.745 118.838 101.941 118.225 101.547C111.844 96.1025 105.464 90.6588 99.0835 85.2148C97.1823 83.7102 94.2766 83.8752 92.7352 85.5754C91.3004 87.1581 93.0098 92.0642 94.8077 93.4369Z" fill="#F7C6A4"/>
<path d="M118.225 101.546C114.149 98.3448 111.208 95.3835 109.268 93.2598C107.127 90.9148 104.929 88.194 100.988 84.4979C96.763 80.5354 94.9419 79.5858 93.5178 80.096C92.5363 80.4475 90.8821 81.7873 90.1071 83.6871C90.0434 83.8433 89.9988 83.9654 89.9717 84.0396C88.5948 87.8131 93.063 91.9 94.2192 93.204C98.7748 98.3427 115.372 107.975 117.356 108.569C117.356 108.569 119.264 109.219 122.077 107.341C124.891 105.464 140.696 98.6756 140.696 98.6756C140.696 98.6756 139.953 92.6675 136.863 91.05L118.225 101.546Z" fill="#AD4328"/>
<path d="M102.141 74.3173L98.4607 77.373L108.075 81.7469L108.859 79.209L102.141 74.3173Z" fill="#AD4328"/>
<path d="M108.859 79.209L111.356 72.4067L114.114 72.7646L112.073 80.4782L108.859 79.209Z" fill="#AD4328"/>
<path opacity="0.18" d="M118.225 101.546C114.149 98.3448 111.208 95.3835 109.268 93.2598C107.127 90.9148 104.929 88.194 100.988 84.4979C96.763 80.5354 94.9419 79.5858 93.5178 80.096C92.5363 80.4475 90.8821 81.7873 90.1071 83.6871C90.0434 83.8433 89.9988 83.9654 89.9717 84.0396C88.5948 87.8131 93.063 91.9 94.2192 93.204C98.7748 98.3427 115.372 107.975 117.356 108.569C117.356 108.569 119.264 109.219 122.077 107.341C124.891 105.464 140.696 98.6756 140.696 98.6756C140.696 98.6756 139.953 92.6675 136.863 91.05L118.225 101.546Z" fill="#F9F9F9"/>
<path opacity="0.1" d="M102.141 74.3173L98.4607 77.373L108.075 81.7469L108.859 79.209L102.141 74.3173Z" fill="#141414"/>
<path opacity="0.1" d="M108.859 79.209L111.356 72.4067L114.114 72.7646L112.073 80.4782L108.859 79.209Z" fill="#141414"/>
<path opacity="0.12" d="M169.452 76.1815C169.452 76.1815 170.19 96.9627 191.554 94.7502L169.452 76.1815Z" fill="black"/>
<path opacity="0.12" d="M130.285 69.3142L128.579 70.7294L131.462 74.3173L133.168 72.7853L130.285 69.3142Z" fill="black"/>
<path opacity="0.12" d="M135.526 75.5305L133.82 76.9457L136.703 80.5336L138.409 79.0017L135.526 75.5305Z" fill="black"/>
<path opacity="0.12" d="M140.108 81.0358L138.401 82.4511L141.284 86.039L142.99 84.5069L140.108 81.0358Z" fill="black"/>
<path opacity="0.11" d="M153.126 113.624C153.126 113.624 159.625 117.812 164.969 112.613C170.313 107.414 178.834 97.015 178.834 97.015L188.366 96.1172C183.072 99.475 179.278 102.78 176.74 105.247C175.83 106.131 170.129 111.722 163.669 115.501C162.813 116.002 161.214 116.898 159.12 116.801C156.125 116.663 153.992 114.582 153.126 113.624Z" fill="white"/>
<path d="M176.896 88.8838C176.968 85.983 177.273 83.0619 178.099 80.2521C178.517 78.8521 179.073 77.484 179.822 76.2161C180.57 74.9509 181.521 73.7909 182.67 72.8565C183.243 72.3896 183.862 71.9794 184.515 71.6284C185.17 71.2811 185.863 71.0088 186.574 70.8021C187.998 70.3888 189.482 70.2605 190.941 70.2667C192.403 70.2692 193.851 70.3842 195.292 70.4596C196.732 70.5344 198.17 70.5742 199.592 70.445C202.441 70.2415 205.181 69.184 207.513 67.5448L208.373 66.9071C208.65 66.6817 208.916 66.4425 209.188 66.2109C209.321 66.0923 209.462 65.9815 209.59 65.8569L209.97 65.4782C210.221 65.2234 210.482 64.9784 210.726 64.7157L211.433 63.9067L211.787 63.5017L212.114 63.0746L212.769 62.2203C212.882 62.0805 212.981 61.9311 213.081 61.7815L213.382 61.3346C214.996 58.9557 216.312 56.379 217.462 53.7367L218.292 51.7388C218.559 51.0686 218.796 50.3863 219.049 49.7107L219.423 48.6946L219.759 47.6648L220.431 45.605L220.785 45.7119L220.132 47.7873L219.806 48.8252L219.441 49.8507C219.193 50.5327 218.962 51.2211 218.701 51.8982L217.886 53.9186C216.738 56.5863 215.419 59.1923 213.79 61.6121L213.486 62.0665C213.386 62.2186 213.285 62.3705 213.171 62.5132L212.508 63.3844L212.177 63.82L211.818 64.2344L211.099 65.0619C210.852 65.3309 210.586 65.583 210.33 65.8444L209.942 66.2332C209.811 66.3611 209.668 66.4757 209.531 66.5977C209.253 66.8365 208.981 67.0823 208.698 67.3148L207.816 67.9738C206.615 68.8173 205.314 69.5261 203.935 70.0409C202.561 70.5705 201.101 70.8755 199.64 70.9986C196.705 71.2555 193.804 70.8102 190.94 70.7913C189.508 70.7798 188.077 70.9013 186.715 71.2913C186.036 71.4863 185.374 71.7432 184.748 72.0719C184.125 72.4044 183.531 72.7948 182.981 73.2394C181.879 74.129 180.961 75.2384 180.233 76.4605C179.503 77.6846 178.958 79.0165 178.54 80.3857C177.702 83.13 177.367 86.0167 177.266 88.8948L176.896 88.8838Z" fill="#E2E2E2"/>
<path d="M179.407 90.762C179.469 89.2491 179.606 87.7358 179.857 86.236C180.107 84.7368 180.464 83.2485 180.985 81.8075C181.512 80.371 182.212 78.9818 183.142 77.7412C183.259 77.5873 183.37 77.4277 183.493 77.2785L183.882 76.8441C184.014 76.7023 184.134 76.5481 184.278 76.4164L184.707 76.0204L184.923 75.8225C184.993 75.7546 185.067 75.691 185.147 75.6352L185.615 75.2843C185.922 75.0418 186.255 74.8366 186.591 74.6368C187.942 73.8421 189.489 73.3925 191.035 73.2427C192.585 73.0852 194.127 73.1852 195.638 73.331C197.151 73.4785 198.641 73.6825 200.128 73.7818C201.614 73.8854 203.098 73.8773 204.548 73.6604C205.998 73.4321 207.421 73.0227 208.774 72.4448L209.776 71.9769C210.107 71.8152 210.42 71.6183 210.744 71.441L211.226 71.1683L211.687 70.86L212.609 70.2425C215.005 68.4904 217.073 66.305 218.933 63.9656L219.619 63.0769L219.962 62.6323C220.075 62.4831 220.177 62.3254 220.285 62.1723L221.564 60.3221C222.352 59.0448 223.175 57.7869 223.889 56.4629L224.449 55.4833L224.728 54.9933L224.989 54.4929L226.029 52.4885C226.387 51.8258 226.691 51.1367 227.018 50.4579L227.995 48.4189L228.271 48.5387C227.094 51.3219 225.857 54.0871 224.411 56.751C223.719 58.1 222.91 59.3841 222.137 60.69L220.876 62.5873C220.769 62.7444 220.669 62.906 220.557 63.0594L220.217 63.5173L219.536 64.4333C217.698 66.8558 215.583 69.1008 213.122 70.9456L212.168 71.5946L211.689 71.9162L211.187 72.2031C210.85 72.3898 210.523 72.5954 210.177 72.7658L209.128 73.2598C207.708 73.8712 206.213 74.3085 204.681 74.5525C203.144 74.7777 201.591 74.7785 200.067 74.6677C198.542 74.5585 197.04 74.3552 195.55 74.1954C194.062 74.0371 192.575 73.9304 191.116 74.0654C189.661 74.1991 188.236 74.5871 186.966 75.2998C186.651 75.48 186.336 75.6654 186.047 75.8871L185.603 76.2064C185.527 76.257 185.457 76.3152 185.39 76.3777L185.186 76.5596L184.776 76.9231C184.639 77.0437 184.524 77.1877 184.396 77.3189L184.022 77.7212C183.903 77.86 183.796 78.0098 183.682 78.1535C182.778 79.3123 182.083 80.635 181.541 82.0175C180.446 84.7902 179.966 87.7881 179.708 90.7795L179.407 90.762Z" fill="#E2E2E2"/>
<path d="M182.033 92.6531C182.084 91.8631 182.142 91.0718 182.238 90.2839L182.312 89.6929L182.403 89.1041C182.458 88.7102 182.538 88.3206 182.612 87.9291C182.921 86.3675 183.371 84.8231 184.027 83.3508C184.686 81.8837 185.562 80.4881 186.706 79.31C187.846 78.1312 189.271 77.2006 190.855 76.6804C191.644 76.4187 192.465 76.2583 193.287 76.1814C194.109 76.1048 194.932 76.1162 195.742 76.1716C197.365 76.286 198.941 76.5821 200.496 76.8466C202.051 77.1129 203.589 77.3741 205.126 77.4512C205.894 77.4871 206.659 77.4989 207.418 77.415C207.797 77.3839 208.178 77.3637 208.553 77.2869L209.117 77.1927C209.304 77.1566 209.495 77.1419 209.679 77.0858L210.79 76.8069C210.978 76.7677 211.157 76.6987 211.338 76.6371L211.881 76.45L212.424 76.2633C212.606 76.2008 212.777 76.1119 212.954 76.0375L214.008 75.5714C214.354 75.4016 214.687 75.2064 215.028 75.0254C215.363 74.8354 215.714 74.6727 216.031 74.4489L217.004 73.8162C217.166 73.7096 217.331 73.6083 217.49 73.4975L217.956 73.1481C220.468 71.3196 222.709 69.1125 224.797 66.7729C228.908 62.0212 232.407 56.7325 235.658 51.3004C234.934 52.7079 234.224 54.1256 233.466 55.5185L232.284 57.5833L231.691 58.6154C231.491 58.9581 231.272 59.2894 231.063 59.6269L229.784 61.6379C229.578 61.9777 229.338 62.2958 229.114 62.6237L228.43 63.6019L227.744 64.5792C227.518 64.9062 227.259 65.2104 227.018 65.5273C226.524 66.1529 226.042 66.7881 225.538 67.4067L223.966 69.2152C223.711 69.5235 223.418 69.7981 223.14 70.0854L222.296 70.9404L221.874 71.3679C221.732 71.5096 221.577 71.6377 221.429 71.7733L220.531 72.5762C219.948 73.1296 219.29 73.5994 218.659 74.1002L218.182 74.4714C218.018 74.5898 217.846 74.696 217.678 74.8087L216.665 75.4758C216.336 75.7102 215.967 75.886 215.616 76.0877C215.259 76.2806 214.909 76.4869 214.546 76.6683L213.433 77.1694C213.246 77.2494 213.065 77.3435 212.872 77.4116L212.295 77.615L211.717 77.8177C211.524 77.8846 211.333 77.9583 211.133 78.0025L209.943 78.3071C209.747 78.3646 209.541 78.3812 209.339 78.4187L208.732 78.5162C208.329 78.5948 207.919 78.6158 207.51 78.6466C206.693 78.7304 205.871 78.7133 205.059 78.67C203.433 78.5729 201.843 78.3064 200.286 78.0085C198.728 77.7129 197.191 77.3969 195.656 77.261C194.126 77.1273 192.591 77.1769 191.148 77.6073C190.427 77.82 189.735 78.1273 189.085 78.5141L188.612 78.8287L188.375 78.9858C188.295 79.0364 188.217 79.0904 188.146 79.1537L187.705 79.5139L187.483 79.6935C187.412 79.7566 187.347 79.8262 187.278 79.8923C186.167 80.9396 185.28 82.2279 184.578 83.6133C183.865 84.9973 183.353 86.4887 182.948 88.0079C182.849 88.3889 182.745 88.7691 182.665 89.155L182.536 89.7323L182.423 90.3133C182.266 91.0873 182.147 91.8693 182.033 92.6531Z" fill="#E2E2E2"/>
<path d="M58.7845 148.768C57.9176 148.095 56.4774 147.818 55.4241 147.767C54.8706 147.74 54.8022 147.854 54.5293 147.452C54.2758 147.079 54.2687 146.19 54.1756 145.742C53.9399 144.606 53.7041 143.47 53.4685 142.334C55.9693 140.789 57.8435 138.26 58.5943 135.418C59.3451 132.576 58.9645 129.451 57.5531 126.872C57.1033 126.05 56.3839 125.195 55.4483 125.246C54.7483 125.285 54.1876 125.831 53.7608 126.387C52.4074 128.15 51.6991 130.349 51.4849 132.562C51.2708 134.774 51.5281 137.008 51.9556 139.189C51.9964 139.397 52.0381 139.616 51.9687 139.817C51.8937 140.034 51.7033 140.187 51.5216 140.327C48.886 142.361 46.0493 144.412 44.6556 147.436C43.8285 149.23 43.5808 151.286 43.9578 153.225C44.3464 155.224 45.4445 157.136 47.1643 158.225C48.291 158.939 49.6168 159.271 50.9339 159.48C52.6012 159.746 54.326 159.831 55.9643 159.424C56.1526 160.42 56.3131 161.423 56.4368 162.43C56.5345 163.224 56.6333 164.033 56.6695 164.838C56.6812 165.096 56.6608 165.346 56.6608 165.602C56.6091 166.128 56.4039 166.646 56.121 167.089C55.9949 167.286 55.8504 167.472 55.6897 167.642C55.2026 168.157 54.5895 168.538 53.9433 168.821C53.4831 169.022 52.987 169.146 52.4847 169.17C52.2322 169.182 51.9785 169.169 51.7289 169.128C51.7087 169.124 51.6851 169.12 51.6639 169.117C52.6624 168.577 53.3487 167.534 53.3487 166.32C53.3487 164.557 51.9199 163.129 50.1576 163.129C48.3953 163.129 46.9666 164.557 46.9666 166.32C46.9666 166.854 47.1103 167.35 47.3424 167.792L47.3239 167.787C47.3691 167.874 47.4226 167.949 47.4718 168.031C47.4916 168.062 47.5081 168.095 47.5289 168.125C49.201 170.766 52.8678 170.622 52.8678 170.622C53.3145 170.642 53.7883 170.547 54.217 170.437C55.1754 170.191 56.0749 169.711 56.7691 169C57.1004 168.661 57.382 168.275 57.611 167.861C57.7989 167.521 57.9651 167.164 58.0528 166.784C58.1747 166.257 58.1364 165.718 58.0853 165.184C57.967 163.946 57.7374 162.721 57.4929 161.498C57.4349 161.209 57.3772 160.919 57.3193 160.63C57.216 160.114 57.1126 159.597 57.0093 159.08C57.0041 159.054 56.9989 159.028 56.9937 159.002C56.9937 159.002 60.0639 158.106 60.7035 155.42C60.7035 155.42 61.9187 151.198 58.7845 148.768ZM53.2833 129.615C54.536 127.926 57.2418 128.676 57.4351 130.769C57.4351 130.769 57.8162 133.77 55.2026 136.743C54.7778 137.322 53.8743 138.205 52.821 139.154L52.5066 137.662C52.4839 137.552 52.4689 137.274 52.4518 137.163C52.1739 135.374 52.1272 132.809 52.296 131.815C52.5195 130.497 53.2833 129.615 53.2833 129.615ZM48.2139 157.092C46.9076 155.984 45.9566 154.388 45.8745 152.677C45.7801 150.711 46.8089 148.861 48.0416 147.326C49.2943 145.767 50.7912 144.406 52.4612 143.305C52.7478 144.546 53.0345 145.787 53.321 147.027C53.3814 147.289 53.4397 147.573 53.3276 147.816C53.2053 148.082 52.9185 148.221 52.6616 148.361C50.776 149.389 49.6203 151.451 49.5818 153.58C49.5672 154.383 49.6881 155.215 50.116 155.895C50.5437 156.575 51.3274 157.071 52.1262 156.985C51.7828 157.022 51.2335 155.539 51.1572 155.286C50.9445 154.582 50.901 153.823 51.0356 153.099C51.3212 151.564 52.4833 150.511 54.0533 150.364C54.6176 152.907 55.272 155.927 55.8035 158.575C55.8062 158.588 55.8087 158.601 55.8112 158.614C53.2422 159.432 50.2697 158.837 48.2139 157.092ZM56.7881 158.136L56.5676 156.978C56.5624 156.946 56.5626 156.914 56.556 156.882L55.1749 150.326C56.0537 150.373 58.5131 150.802 59.1503 154.095C59.1503 154.095 59.6976 156.572 56.7881 158.136Z" fill="#AD4328"/>
<path d="M176.378 155.027V136.954C176.378 136.873 176.313 136.808 176.232 136.808H175.586C175.505 136.808 175.439 136.873 175.439 136.954V153.558C174.484 153.083 173.025 153.17 171.65 153.885C169.74 154.878 168.722 156.702 169.375 157.959C170.029 159.215 172.107 159.429 174.017 158.436C175.611 157.607 176.386 156.196 176.378 155.027Z" fill="#AD4328"/>
<path d="M206.122 67.4792V81.1508C206.122 81.2121 206.172 81.2617 206.233 81.2617H206.722C206.783 81.2617 206.833 81.2121 206.833 81.1508V68.59C207.555 68.9494 208.659 68.884 209.699 68.3433C211.144 67.5921 211.914 66.2123 211.42 65.2615C210.926 64.3106 209.354 64.149 207.909 64.9002C206.703 65.5271 206.117 66.5948 206.122 67.4792Z" fill="#AD4328"/>
<path d="M192.647 63.5829V63.5892L186.585 64.8242C186.538 64.8338 186.504 64.8754 186.504 64.9238V65.7211V66.53V72.5638C186.06 72.3434 185.383 72.3834 184.745 72.7152C183.859 73.1761 183.387 74.0223 183.69 74.6056C183.993 75.1888 184.958 75.2881 185.844 74.8273C186.583 74.4427 187.069 73.7879 187.066 73.2454V66.4894C187.066 66.4469 187.096 66.4102 187.137 66.4017L192.54 65.3054C192.595 65.2942 192.647 65.3365 192.647 65.3931V71.0284C192.204 70.8079 191.527 70.8479 190.889 71.1798C190.003 71.6406 189.53 72.4869 189.833 73.0702C190.137 73.6536 191.101 73.7527 191.987 73.2919C192.727 72.9073 193.176 72.2546 193.129 71.7098H193.134V63.6133C193.134 63.5496 193.075 63.5015 193.013 63.5133L192.647 63.5829Z" fill="#AD4328"/>
<path d="M225.84 33.8606C225.038 33.4686 224.517 32.7123 224.231 31.8865C224.113 31.544 224.031 31.189 223.979 30.8304C223.955 30.67 223.945 29.584 223.935 29.4221C223.927 29.2892 223.938 29.1315 223.892 29.0052C223.804 28.765 223.298 28.6252 223.061 28.694C222.878 28.7473 222.877 28.9833 222.888 29.1371C222.904 29.3725 222.905 30.529 222.905 30.7656C222.903 31.2417 222.901 31.7179 222.9 32.1942C222.898 32.8171 222.896 33.44 222.893 34.0629C222.891 34.7806 222.889 35.4983 222.886 36.2163C222.884 36.9769 222.881 37.7377 222.878 38.4983C222.876 39.25 222.873 40.0019 222.871 40.7535C222.868 41.4446 222.866 42.1354 222.864 42.8265C222.862 43.4046 222.86 43.9829 222.858 44.5611C222.856 44.9746 222.855 45.3883 222.854 45.8019C222.853 45.999 222.852 46.196 222.851 46.3931C222.851 46.3952 222.849 46.4202 222.851 46.4213C221.84 45.9181 220.294 46.0094 218.838 46.7667C216.815 47.8188 215.736 49.7508 216.428 51.0821C217.12 52.4135 218.87 52.7046 220.893 51.6527C222.582 50.7746 223.69 49.2796 223.683 48.0413V35.8994C226.152 35.824 228.441 38.8121 228.441 38.8121C230.746 42.8708 227.008 46.9146 227.008 46.9146C226.761 47.6813 227.267 47.5194 227.267 47.5194C228.589 46.7229 230.124 44.2092 230.124 44.2092C233.659 38.3023 225.84 33.8606 225.84 33.8606Z" fill="#AD4328"/>
<path d="M61.5324 81.2609H60.0022H51.1799V82.8584V83.1804V93.3985C50.4878 93.0544 49.4305 93.1169 48.4343 93.635C47.0503 94.3546 46.3124 95.6762 46.7859 96.5871C47.2595 97.4979 48.7653 97.6527 50.1493 96.9331C51.3043 96.3325 52.0624 95.3098 52.0572 94.4627V83.4915H60.0024H60.7732V93.3737C60.0812 93.0296 59.0239 93.0921 58.0276 93.6102C56.6437 94.3298 55.9057 95.6514 56.3793 96.5623C56.8528 97.4731 58.3587 97.6279 59.7426 96.9083C60.8976 96.3077 61.5997 95.2883 61.5259 94.4379H61.5326V83.4917H70.8634V93.3989C70.1714 93.0548 69.1141 93.1173 68.1178 93.6354C66.7339 94.355 65.9959 95.6766 66.4695 96.5875C66.943 97.4983 68.4489 97.6531 69.8328 96.9335C70.9878 96.3329 71.7459 95.3102 71.7407 94.4631V83.4919V81.9179V81.2617H61.5324V81.2609Z" fill="#AD4328"/>
<path d="M153.097 53.4458C153.06 53.3289 153.015 53.2139 152.968 53.1002C153.36 52.0948 153.149 51.2856 153.149 51.2856C153.104 51.145 153.049 51.0073 152.989 50.871C153.352 49.8912 153.149 49.1112 153.149 49.1112C152.647 47.5433 151.194 46.2421 149.796 45.3748C148.647 44.6614 148.128 44.4767 147.788 43.3908C147.778 43.3117 147.762 43.23 147.736 43.1579C147.73 43.1425 147.72 43.1294 147.71 43.116C147.71 43.1142 147.709 43.1125 147.709 43.1106C147.709 43.1114 147.708 43.1121 147.708 43.1131C147.604 42.9714 147.299 42.9344 147.138 42.9812C147.001 43.021 147.008 43.1825 147.008 43.3125C147.008 43.3408 147.009 43.3706 147.009 43.3996L146.982 56.2144C146.226 55.8383 145.07 55.9421 143.981 56.5083C142.469 57.2948 141.662 58.7391 142.18 59.7346C142.697 60.73 144.343 60.8993 145.855 60.1129C147.118 59.4564 147.609 58.3725 147.603 57.4466V49.9979C147.96 50.2079 147.995 50.2498 148.553 50.5054C150.552 51.4206 152.885 53.8683 152.071 56.0769C151.963 56.3708 151.629 56.9244 151.483 57.2004C151.15 57.8277 152.009 57.6585 152.353 57.1523C153.121 56.0223 153.509 54.731 153.097 53.4458ZM148.605 46.1708C150.694 46.8562 152.091 47.7292 152.408 49.8216C152.408 49.8216 152.408 49.8402 152.41 49.8719C151.725 48.9316 150.748 48.1396 149.797 47.5487C148.857 46.9654 148.302 46.6821 147.941 45.9981C148.094 46.0435 148.289 46.0673 148.605 46.1708ZM149.745 49.7092C149.01 49.2531 148.259 48.6881 147.697 48.0494C147.907 48.2169 148.104 48.1808 148.605 48.3452C150.694 49.0306 152.091 49.9035 152.408 51.996C152.408 51.996 152.409 52.0396 152.414 52.11C151.726 51.1358 150.723 50.316 149.745 49.7092Z" fill="#AD4328"/>
<path d="M163.348 110.391L163.826 114.386L166.539 114.696L163.826 115.006L163.348 119.001L162.869 115.006L160.156 114.696L162.869 114.386L163.348 110.391Z" fill="white"/>
<path d="M138.887 74.3868L139.365 78.3823L142.078 78.6919L139.365 79.0016L138.887 82.9969L138.408 79.0016L135.695 78.6919L138.408 78.3823L138.887 74.3868Z" fill="white"/>
<path d="M188.243 95.1617L187.345 99.0842L189.794 100.291L187.136 99.6671L185.337 103.266L186.235 99.3442L183.786 98.1369L186.444 98.7613L188.243 95.1617Z" fill="white"/>
<path opacity="0.67" d="M103.403 55.5212L104.041 58.8283L106.325 58.9252L104.078 59.3456L103.917 62.7096L103.279 59.4025L100.995 59.3058L103.242 58.8854L103.403 55.5212Z" fill="white"/>
</svg>
