<svg width="233" height="201" viewBox="0 0 233 201" fill="none" xmlns="http://www.w3.org/2000/svg">
<g clip-path="url(#clip0_7_3089)">
<path d="M154.967 15.861C154.967 15.861 159.528 5.54565 151.426 3.06268C143.325 0.579716 142.185 0.377849 138.564 0.761396C133.723 1.24588 131.423 8.1901 130.823 11.5613C130.263 14.6498 131.023 16.8502 133.423 21.0692C135.823 25.2882 136.804 24.2183 137.864 24.4C138.904 24.5615 154.967 15.861 154.967 15.861Z" fill="#0B4870"/>
<path d="M127.042 109.931C127.042 109.931 140.184 141.685 141.124 146.429C142.065 151.173 158.027 185.288 158.027 185.288L152.386 189.083C152.386 189.083 131.683 160.923 129.842 152.586C128.902 148.326 113.4 127.473 113.4 127.473L127.042 109.931Z" fill="#FCD2B1"/>
<path d="M153.267 174.932L160.928 188.074L154.227 191.889L145.405 179.212L153.267 174.932Z" fill="#CCE9FF"/>
<path d="M65.2913 122.245L79.1536 129.351C79.1536 129.351 72.5325 142.149 65.9914 144.511C59.4303 146.873 22.3439 131.713 22.3439 131.713L23.4041 124.425C23.4041 124.425 52.229 130.037 60.4904 133.227L65.2913 122.245Z" fill="#FCD2B1"/>
<path d="M121.461 92.8733C121.461 92.8733 130.362 113.262 136.744 124.627C136.744 124.627 124.802 137.789 117.76 140.615C117.76 140.615 96.0366 118.692 96.5166 109.931C96.5166 109.931 84.1945 133.873 79.1537 137.425C79.1537 137.425 63.531 129.613 59.6703 127.11C59.6703 127.11 70.9322 73.6959 88.5553 67.1756C88.5353 67.1756 123.381 77.814 121.461 92.8733Z" fill="#FFB600"/>
<path d="M114.84 34.2915C114.84 34.2915 97.6969 29.6082 88.7753 29.1237C88.7753 29.1237 75.393 49.7343 72.5725 52.5807C72.5725 52.5807 70.9323 57.3245 70.9323 60.8774C70.9323 64.4303 67.6517 66.3278 65.7714 65.8635C63.891 65.3992 62.0107 63.0172 62.2508 60.1709C62.4908 57.3245 66.0114 55.6692 67.4116 53.0651C68.8119 50.4611 78.4335 21.0692 86.655 20.1204C94.8764 19.1717 123.301 27.2262 123.301 27.2262L114.84 34.2915Z" fill="#FCD2B1"/>
<path d="M143.365 50.6629C143.365 50.6629 161.568 69.8807 167.209 72.727C172.85 75.5733 199.154 82.6791 199.154 82.6791C199.154 82.6791 203.615 85.7676 205.015 88.1295C206.416 90.4913 209.016 89.5425 209.016 89.5425C209.956 87.8872 206.676 87.4027 205.956 85.7474C205.255 84.0921 214.417 87.8872 217.458 90.7335C217.458 90.7335 220.978 89.0782 219.578 86.6962C218.178 84.3344 215.817 81.488 212.297 80.7815C208.776 80.075 206.436 80.075 203.835 78.8839C201.255 77.6929 175.77 67.1757 172.01 64.1275C166.029 59.2221 151.686 44.0619 151.686 44.0619L143.365 50.6629Z" fill="#FCD2B1"/>
<path d="M117.9 39.964C118.781 39.6006 122.401 27.9932 122.401 27.9932C122.401 27.9932 132.003 31.0818 135.163 21.1298C135.163 21.1298 134.103 21.1096 133.763 18.6468C133.063 13.6809 137.004 14.5691 137.564 16.0024C137.404 15.1141 137.224 12.5908 139.344 10.1482C140.904 8.37178 145.085 4.77854 154.307 9.56279C154.307 9.56279 156.827 21.8161 152.066 26.8022C149.646 29.3256 146.565 29.5073 144.105 29.0833C143.265 30.2743 142.365 31.748 142.025 33.0197L148.186 39.9438L137.964 52.3788C137.964 52.3788 120.521 53.9735 120.001 52.3788C119.481 50.8042 117.02 40.3273 117.9 39.964Z" fill="#FCD2B1"/>
<path d="M148.185 39.964L152.626 45.0107C152.626 45.0107 144.245 54.8214 139.204 67.3977C134.163 79.9538 121.461 92.8733 121.461 92.8733C121.461 92.8733 114.46 88.6745 92.7559 76.9662C87.375 74.0593 78.5735 76.1991 78.5735 76.1991C78.5735 76.1991 92.7559 55.427 112.959 34.453L121.101 26.6206L126.102 28.1749C126.102 28.1749 127.502 40.9531 130.322 44.0417C133.143 47.1303 148.185 39.964 148.185 39.964Z" fill="#FFB600"/>
<path d="M162.008 185.934C163.748 186.742 165.309 186.863 166.529 186.116L167.189 185.712C171.31 183.734 176.17 184.38 179.671 187.327L158.007 200.61L153.427 191.566L162.008 185.934Z" fill="#FFB600"/>
<path d="M29.125 134.397L14.8225 129.431L17.2829 122.346L32.2455 126.242L29.125 134.397Z" fill="#CCE9FF"/>
<path d="M15.3627 131.652C13.4823 131.975 12.1221 132.782 11.542 134.074L11.222 134.781C8.94156 138.758 4.5608 141.019 0.0200195 140.574L10.4418 117.259L19.2833 122.104L15.3627 131.652Z" fill="#FFB600"/>
<path d="M137.564 16.3859C137.564 16.3859 142.645 12.1265 141.764 7.7258C141.764 7.7258 159.207 12.5302 154.627 9.58298C150.046 6.63572 145.545 2.09371 140.324 5.88881C133.083 11.1575 137.564 16.3859 137.564 16.3859Z" fill="#0B4870"/>
<path opacity="0.09" d="M148.185 39.964L152.626 45.0107C152.626 45.0107 144.245 54.8214 139.204 67.3977C134.163 79.9538 121.461 92.8733 121.461 92.8733C121.461 92.8733 114.46 88.6745 92.7559 76.9662C87.375 74.0593 78.5735 76.1991 78.5735 76.1991C78.5735 76.1991 92.7559 55.427 112.959 34.453L121.101 26.6206L126.102 28.1749C126.102 28.1749 127.502 40.9531 130.322 44.0417C133.143 47.1303 148.185 39.964 148.185 39.964Z" fill="black"/>
<path d="M213.016 147.963C223.512 147.963 232.02 139.377 232.02 128.785C232.02 118.194 223.512 109.608 213.016 109.608C202.521 109.608 194.013 118.194 194.013 128.785C194.013 139.377 202.521 147.963 213.016 147.963Z" fill="#FFB600"/>
<path d="M206.876 148.326C206.976 148.245 216.957 139.888 212.017 131.006C206.696 121.458 192.793 126.06 192.653 126.121L193.033 127.231C193.173 127.191 206.176 122.891 211.016 131.591C215.497 139.626 206.256 147.337 206.156 147.418L206.876 148.326Z" fill="#0B4870"/>
<path d="M230 125.051C230.36 125.051 230.72 125.051 231.1 125.031L231.04 123.86C226.779 124.062 223.679 123.012 221.798 120.751C218.558 116.815 219.998 110.436 220.018 110.355L218.878 110.093C218.818 110.375 217.278 117.097 220.898 121.498C222.839 123.86 225.899 125.051 230 125.051Z" fill="#0B4870"/>
<path d="M195.893 138.071C221.338 133.327 228.579 115.947 228.659 115.765L227.579 115.321C227.519 115.482 220.457 132.278 195.693 136.921L195.893 138.071Z" fill="#0B4870"/>
<path d="M224.499 143.744L225.659 143.703C224.819 123.133 203.335 111.304 203.115 111.183L202.575 112.212C202.775 112.313 223.679 123.86 224.499 143.744Z" fill="#0B4870"/>
</g>
<defs>
<clipPath id="clip0_7_3089">
<rect width="232" height="200" fill="white" transform="translate(0.0200195 0.609825)"/>
</clipPath>
</defs>
</svg>
