<svg width="250" height="250" viewBox="0 0 250 250" fill="none" xmlns="http://www.w3.org/2000/svg">
<path d="M114.588 74.0067C113.449 75.3786 113.552 77.3798 113.565 77.598C113.645 78.8953 114.185 79.8773 114.572 80.4744C118.357 86.3165 124.277 89.5975 124.277 89.5975C126.587 91.5023 129.11 93.4523 131.854 95.4019C135.317 97.8627 138.673 99.9977 141.845 101.849C142.43 98.6642 143.015 95.4798 143.6 92.2955C138.8 88.3705 134.911 85.1582 131.936 82.8034C130.249 81.4682 128.385 79.9403 126.598 77.3486C125.468 75.7103 125.76 75.6069 125.036 74.8398C122.42 72.0661 116.727 71.4296 114.588 74.0067Z" fill="#FFB600"/>
<path opacity="0.12" d="M114.588 74.0067C113.449 75.3786 113.552 77.3798 113.565 77.598C113.645 78.8953 114.185 79.8773 114.572 80.4744C118.357 86.3165 124.277 89.5975 124.277 89.5975C126.587 91.5023 129.11 93.4523 131.854 95.4019C135.317 97.8627 138.673 99.9977 141.845 101.849C142.43 98.6642 143.015 95.4798 143.6 92.2955C138.8 88.3705 134.911 85.1582 131.936 82.8034C130.249 81.4682 128.385 79.9403 126.598 77.3486C125.468 75.7103 125.76 75.6069 125.036 74.8398C122.42 72.0661 116.727 71.4296 114.588 74.0067Z" fill="black"/>
<path d="M99.1233 47.3477C101.94 47.3477 104.223 45.0647 104.223 42.2484C104.223 39.4321 101.94 37.149 99.1233 37.149C96.307 37.149 94.0239 39.4321 94.0239 42.2484C94.0239 45.0647 96.307 47.3477 99.1233 47.3477Z" fill="#0B4870"/>
<path d="M104.223 45.5827C107.039 45.5827 109.322 43.2997 109.322 40.4833C109.322 37.667 107.039 35.384 104.223 35.384C101.406 35.384 99.1233 37.667 99.1233 40.4833C99.1233 43.2997 101.406 45.5827 104.223 45.5827Z" fill="#0B4870"/>
<path d="M109.322 48.5246C112.138 48.5246 114.421 46.2415 114.421 43.4252C114.421 40.6089 112.138 38.3259 109.322 38.3259C106.506 38.3259 104.223 40.6089 104.223 43.4252C104.223 46.2415 106.506 48.5246 109.322 48.5246Z" fill="#0B4870"/>
<path d="M114.421 52.4471C117.238 52.4471 119.521 50.164 119.521 47.3477C119.521 44.5314 117.238 42.2484 114.421 42.2484C111.605 42.2484 109.322 44.5314 109.322 47.3477C109.322 50.164 111.605 52.4471 114.421 52.4471Z" fill="#0B4870"/>
<path d="M118.148 58.7233C120.964 58.7233 123.247 56.4403 123.247 53.624C123.247 50.8077 120.964 48.5246 118.148 48.5246C115.332 48.5246 113.048 50.8077 113.048 53.624C113.048 56.4403 115.332 58.7233 118.148 58.7233Z" fill="#0B4870"/>
<path d="M116.775 62.6458C119.591 62.6458 121.874 60.3628 121.874 57.5465C121.874 54.7301 119.591 52.4471 116.775 52.4471C113.959 52.4471 111.676 54.7301 111.676 57.5465C111.676 60.3628 113.959 62.6458 116.775 62.6458Z" fill="#0B4870"/>
<path d="M114.421 67.7452C117.238 67.7452 119.521 65.4621 119.521 62.6458C119.521 59.8295 117.238 57.5464 114.421 57.5464C111.605 57.5464 109.322 59.8295 109.322 62.6458C109.322 65.4621 111.605 67.7452 114.421 67.7452Z" fill="#0B4870"/>
<path d="M109.322 71.4777C112.138 71.4777 114.421 69.1947 114.421 66.3784C114.421 63.5621 112.138 61.279 109.322 61.279C106.506 61.279 104.223 63.5621 104.223 66.3784C104.223 69.1947 106.506 71.4777 109.322 71.4777Z" fill="#0B4870"/>
<path d="M105.596 72.8446C108.412 72.8446 110.695 70.5616 110.695 67.7452C110.695 64.9289 108.412 62.6459 105.596 62.6459C102.779 62.6459 100.496 64.9289 100.496 67.7452C100.496 70.5616 102.779 72.8446 105.596 72.8446Z" fill="#0B4870"/>
<path d="M103.046 72.8446C105.862 72.8446 108.145 70.5616 108.145 67.7452C108.145 64.9289 105.862 62.6459 103.046 62.6459C100.23 62.6459 97.9467 64.9289 97.9467 67.7452C97.9467 70.5616 100.23 72.8446 103.046 72.8446Z" fill="#0B4870"/>
<path d="M104.811 67.7452C111.419 67.7452 116.775 62.3888 116.775 55.7813C116.775 49.1738 111.419 43.8173 104.811 43.8173C98.2037 43.8173 92.8473 49.1738 92.8473 55.7813C92.8473 62.3888 98.2037 67.7452 104.811 67.7452Z" fill="#0B4870"/>
<path d="M94.0242 52.4471C96.8405 52.4471 99.1235 50.164 99.1235 47.3477C99.1235 44.5314 96.8405 42.2484 94.0242 42.2484C91.2079 42.2484 88.9248 44.5314 88.9248 47.3477C88.9248 50.164 91.2079 52.4471 94.0242 52.4471Z" fill="#0B4870"/>
<path d="M91.6706 57.5465C94.4869 57.5465 96.7699 55.2634 96.7699 52.4471C96.7699 49.6308 94.4869 47.3477 91.6706 47.3477C88.8542 47.3477 86.5712 49.6308 86.5712 52.4471C86.5712 55.2634 88.8542 57.5465 91.6706 57.5465Z" fill="#0B4870"/>
<path d="M90.886 62.6458C93.7023 62.6458 95.9854 60.3628 95.9854 57.5465C95.9854 54.7301 93.7023 52.4471 90.886 52.4471C88.0697 52.4471 85.7866 54.7301 85.7866 57.5465C85.7866 60.3628 88.0697 62.6458 90.886 62.6458Z" fill="#0B4870"/>
<path d="M91.6706 69.3142C94.4869 69.3142 96.7699 67.0311 96.7699 64.2148C96.7699 61.3985 94.4869 59.1154 91.6706 59.1154C88.8542 59.1154 86.5712 61.3985 86.5712 64.2148C86.5712 67.0311 88.8542 69.3142 91.6706 69.3142Z" fill="#0B4870"/>
<path d="M95.9855 72.8446C98.8018 72.8446 101.085 70.5616 101.085 67.7452C101.085 64.9289 98.8018 62.6459 95.9855 62.6459C93.1692 62.6459 90.8861 64.9289 90.8861 67.7452C90.8861 70.5616 93.1692 72.8446 95.9855 72.8446Z" fill="#0B4870"/>
<path d="M100.647 65.5071C103.537 71.315 111.859 70.0348 111.859 70.0348L100.647 65.5071Z" fill="#EFB68F"/>
<path d="M102.407 75.1827C102.407 75.1827 92.9158 80.5984 91.0767 82.3336C91.0767 82.3336 107.726 94.2761 125.072 75.28C123.27 74.5931 122.974 74.6094 120.606 74.0733C117.551 73.3817 113.252 72.4836 110.911 72.379L102.407 75.1827Z" fill="#EFB68F"/>
<path d="M111.356 70.0917L111.519 74.4262L102.617 75.7733L99.1218 65.0958L101.239 64.6896L111.356 70.0917Z" fill="#EFB68F"/>
<path d="M96.4043 62.9736C96.9637 63.995 97.9379 64.7557 99.1218 65.0961C102.476 66.0294 102.441 62.004 100.779 60.4884C98.8014 58.6811 94.9095 60.2288 96.4043 62.9736Z" fill="#EFB68F"/>
<path d="M100.857 76.2911C102.833 79.1032 106.397 80.2353 109.437 79.1061C112.042 78.1382 113.874 75.6525 114.113 72.7644C115.187 72.455 117.205 72.0248 119.695 72.4234C122.207 72.8253 124.002 73.8786 124.925 74.5115L133.168 123.219L104.148 127.738L90.8206 82.5559C91.9106 81.6421 93.1218 80.2236 94.6383 79.2877C96.9026 77.8903 99.0468 76.9427 100.857 76.2911Z" fill="#FFB600"/>
<path d="M140.696 135.904C139.027 139.082 133.812 140.283 132.475 140.873C132.063 141.055 130.691 141.348 127.957 141.978C125.851 142.463 123.652 142.928 121.328 143.369C119.985 143.624 118.663 143.859 117.364 144.076C114.039 144.631 114.204 144.06 112.784 144.157C110.791 144.293 110.864 144.999 106.318 142.342C102.865 138.321 103.394 127.826 102.61 122.526L132.057 116.654C134.5 121.215 136.511 129.975 140.696 135.904Z" fill="#0B4870"/>
<path d="M138.964 207.662L143.075 192.954L137.283 191.18L133.167 205.867L138.964 207.662Z" fill="#FFB600"/>
<path d="M132.433 206.092L131.366 210.82H150.151V210.682C150.151 209.593 149.525 208.601 148.542 208.133L139.824 204.654C139.51 204.505 139.107 204.511 138.868 204.763C137.742 205.953 136.504 207.889 133.065 205.788C132.815 205.636 132.488 205.805 132.433 206.092Z" fill="#0B4870"/>
<path d="M150.151 210.82H131.366V212.06H150.151V210.82Z" fill="#FFB600"/>
<path d="M147.11 158.605C150.159 156.627 151.064 152.572 149.144 149.485L137.312 130.465C135.079 126.875 130.129 125.424 126.311 127.241C125.43 128.095 123.971 129.734 123.009 132.224C121.928 135.024 122.022 137.484 122.156 138.736C127.589 144.956 133.022 151.177 138.455 157.397C140.638 159.897 144.326 160.411 147.11 158.605Z" fill="#0B4870"/>
<path d="M127.177 210.82L143.075 205.952L150.328 152.199C149.881 148.541 146.536 145.95 142.883 146.433C139.177 146.923 136.611 150.38 137.213 154.069L127.177 210.82Z" fill="#0B4870"/>
<path d="M77.3442 206.26L84.8582 192.965L90.2038 195.815L82.7082 209.099L77.3442 206.26Z" fill="#FFB600"/>
<path d="M106.906 164.453L95.7469 159.881L106.244 131.81C107.749 127.893 112.175 125.974 116.062 127.553C116.279 127.641 117.04 127.963 117.889 128.636C117.889 128.636 119.502 129.927 120.244 131.825C121.065 133.925 120.549 136.103 119.972 137.797C118.565 141.925 113.869 151.765 106.906 164.453Z" fill="#0B4870"/>
<path d="M90.8859 214.224L74.9689 204.555L99.3924 150.243C100.745 146.815 104.634 145.15 108.048 146.537C111.511 147.944 113.126 151.936 111.614 155.354L90.8859 214.224Z" fill="#0B4870"/>
<path d="M85.5687 209.413L84.9802 214.224L67.2937 207.893L67.3402 207.763C67.707 206.738 68.631 206.015 69.7141 205.906L79.0945 205.569C79.4402 205.534 79.8175 205.676 79.9575 205.994C80.6175 207.493 81.1297 209.733 85.0762 208.914C85.3625 208.854 85.6131 209.124 85.5687 209.413Z" fill="#0B4870"/>
<path d="M66.8776 209.062L84.5638 215.393L84.9819 214.225L67.2957 207.894L66.8776 209.062Z" fill="#FFB600"/>
<path d="M111.356 70.0919C111.111 70.649 110.714 71.2623 110.052 71.5831C107.975 72.5906 104.878 69.9444 103.632 68.8808C102.31 67.7515 101.346 66.5554 100.647 65.5075C101.274 66.1894 102.066 66.9185 111.356 70.0919Z" fill="#E0A882"/>
<path d="M96.6115 51.4157C99.1405 46.7363 106.357 44.5971 110.62 47.085C112.555 48.214 113.36 49.9915 114.548 52.6138C114.911 53.4154 117.539 59.4394 115.513 65.8413C114.728 68.319 113.791 69.1354 113.104 69.5338C111.718 70.3367 110.201 70.0829 108.807 69.8802C105.982 69.4692 104.039 68.1063 103.326 67.5931C99.9159 65.1421 93.2853 57.57 96.6115 51.4157Z" fill="#EFB68F"/>
<path d="M96.3661 61.1786C97.0442 61.1786 97.5938 60.6289 97.5938 59.9509C97.5938 59.2728 97.0442 58.7231 96.3661 58.7231C95.6881 58.7231 95.1384 59.2728 95.1384 59.9509C95.1384 60.6289 95.6881 61.1786 96.3661 61.1786Z" fill="#0B4870"/>
<path d="M97.6399 61.5707C98.1483 61.5707 98.5605 61.1585 98.5605 60.6501C98.5605 60.1416 98.1483 59.7294 97.6399 59.7294C97.1314 59.7294 96.7192 60.1416 96.7192 60.6501C96.7192 61.1585 97.1314 61.5707 97.6399 61.5707Z" fill="#0B4870"/>
<path d="M98.5603 62.1847C98.8993 62.1847 99.1741 61.9099 99.1741 61.5709C99.1741 61.2319 98.8993 60.9572 98.5603 60.9572C98.2213 60.9572 97.9465 61.2319 97.9465 61.5709C97.9465 61.9099 98.2213 62.1847 98.5603 62.1847Z" fill="#0B4870"/>
<path d="M95.9853 59.434C96.7436 59.434 97.3582 58.8193 97.3582 58.0611C97.3582 57.3028 96.7436 56.6882 95.9853 56.6882C95.2271 56.6882 94.6124 57.3028 94.6124 58.0611C94.6124 58.8193 95.2271 59.434 95.9853 59.434Z" fill="#0B4870"/>
<path d="M95.7035 57.1542C96.4617 57.1542 97.0764 56.5395 97.0764 55.7813C97.0764 55.0231 96.4617 54.4084 95.7035 54.4084C94.9452 54.4084 94.3306 55.0231 94.3306 55.7813C94.3306 56.5395 94.9452 57.1542 95.7035 57.1542Z" fill="#0B4870"/>
<path d="M96.0703 54.9969C96.8286 54.9969 97.4432 54.3823 97.4432 53.624C97.4432 52.8658 96.8286 52.2511 96.0703 52.2511C95.3121 52.2511 94.6974 52.8658 94.6974 53.624C94.6974 54.3823 95.3121 54.9969 96.0703 54.9969Z" fill="#0B4870"/>
<path d="M96.7698 53.1915C97.528 53.1915 98.1427 52.5768 98.1427 51.8186C98.1427 51.0604 97.528 50.4457 96.7698 50.4457C96.0115 50.4457 95.3969 51.0604 95.3969 51.8186C95.3969 52.5768 96.0115 53.1915 96.7698 53.1915Z" fill="#0B4870"/>
<path d="M97.9467 51.2705C98.7049 51.2705 99.3196 50.6558 99.3196 49.8976C99.3196 49.1393 98.7049 48.5247 97.9467 48.5247C97.1884 48.5247 96.5737 49.1393 96.5737 49.8976C96.5737 50.6558 97.1884 51.2705 97.9467 51.2705Z" fill="#0B4870"/>
<path d="M99.3195 49.8976C100.078 49.8976 100.692 49.2829 100.692 48.5247C100.692 47.7664 100.078 47.1517 99.3195 47.1517C98.5612 47.1517 97.9465 47.7664 97.9465 48.5247C97.9465 49.2829 98.5612 49.8976 99.3195 49.8976Z" fill="#0B4870"/>
<path d="M100.871 48.7207C101.629 48.7207 102.244 48.106 102.244 47.3478C102.244 46.5895 101.629 45.9749 100.871 45.9749C100.113 45.9749 99.4979 46.5895 99.4979 47.3478C99.4979 48.106 100.113 48.7207 100.871 48.7207Z" fill="#0B4870"/>
<path d="M102.244 47.3478C103.002 47.3478 103.617 46.7331 103.617 45.9748C103.617 45.2166 103.002 44.6019 102.244 44.6019C101.486 44.6019 100.871 45.2166 100.871 45.9748C100.871 46.7331 101.486 47.3478 102.244 47.3478Z" fill="#0B4870"/>
<path d="M104.811 46.9557C105.569 46.9557 106.184 46.341 106.184 45.5828C106.184 44.8245 105.569 44.2098 104.811 44.2098C104.053 44.2098 103.438 44.8245 103.438 45.5828C103.438 46.341 104.053 46.9557 104.811 46.9557Z" fill="#0B4870"/>
<path d="M106.968 47.3478C107.727 47.3478 108.341 46.7331 108.341 45.9748C108.341 45.2166 107.727 44.6019 106.968 44.6019C106.21 44.6019 105.596 45.2166 105.596 45.9748C105.596 46.7331 106.21 47.3478 106.968 47.3478Z" fill="#0B4870"/>
<path d="M108.926 47.8484C109.685 47.8484 110.299 47.2337 110.299 46.4755C110.299 45.7172 109.685 45.1025 108.926 45.1025C108.168 45.1025 107.553 45.7172 107.553 46.4755C107.553 47.2337 108.168 47.8484 108.926 47.8484Z" fill="#0B4870"/>
<path d="M110.991 47.8484C111.749 47.8484 112.363 47.2337 112.363 46.4755C112.363 45.7172 111.749 45.1025 110.991 45.1025C110.232 45.1025 109.618 45.7172 109.618 46.4755C109.618 47.2337 110.232 47.8484 110.991 47.8484Z" fill="#0B4870"/>
<path d="M112.874 49.2213C113.633 49.2213 114.247 48.6066 114.247 47.8484C114.247 47.0901 113.633 46.4755 112.874 46.4755C112.116 46.4755 111.502 47.0901 111.502 47.8484C111.502 48.6066 112.116 49.2213 112.874 49.2213Z" fill="#0B4870"/>
<path d="M115.791 53.1896L100.695 59.6327H100.691L100.069 59.1231L115.715 52.4475L115.791 53.1896Z" fill="#FFB600"/>
<path opacity="0.06" d="M115.791 53.1896L100.695 59.6327H100.691L100.069 59.1231L115.715 52.4475L115.791 53.1896Z" fill="#191919"/>
<path d="M116.273 57.8956L111.986 59.9508L110.299 59.1152L109.32 61.2775L104.622 62.8342L100.695 59.6327L115.791 53.1896L116.273 57.8956Z" fill="#FFB600"/>
<path opacity="0.14" d="M104.658 57.9415L104.622 62.8342L108.075 61.6902V56.4529L104.658 57.9415Z" fill="white"/>
<path opacity="0.14" d="M111.986 54.8038V59.9508L115.128 58.4446V53.4975L111.986 54.8038Z" fill="white"/>
<path d="M97.7593 61.5223L101.552 60.3313L100.069 59.1234L96.366 60.6502C96.4351 60.6486 96.7705 60.6481 97.052 60.9086C97.3099 61.1473 97.7514 61.4463 97.7593 61.5223Z" fill="#FFB600"/>
<path opacity="0.15" d="M97.7593 61.5223L101.552 60.3313L100.069 59.1234L96.366 60.6502C96.4351 60.6486 96.7705 60.6481 97.052 60.9086C97.3099 61.1473 97.7514 61.4463 97.7593 61.5223Z" fill="#191919"/>
<path d="M111.188 65.0887L121.189 68.1781L148.847 112.621C152.537 118.551 160.592 119.9 166.013 115.497L191.554 94.75L169.452 76.1813L156.506 100.888L126.836 65.1615C125.53 63.5883 123.477 62.8423 121.465 63.21L111.188 65.0887Z" fill="#FFB600"/>
<path d="M138.236 88.6711C137.941 89.5058 138.119 89.9835 138.119 89.9835C137.436 90.4498 137.335 91.3323 137.899 91.9156L138.298 92.3288C138.819 92.8683 139.721 92.9535 140.354 92.5229L140.39 92.4981C140.833 92.4369 143.245 92.0606 144.462 90.0127C145.236 88.7094 145.582 86.6348 144.749 86.0867C144.03 85.6134 142.435 86.2811 141.04 87.8606L141.535 86.4173C141.598 86.2342 141.52 86.0354 141.342 85.9267C141.15 85.8096 140.894 85.8267 140.725 85.9677L139.389 87.0844C138.865 87.5217 138.452 88.0611 138.236 88.6711Z" fill="#F7C6A4"/>
<path d="M137.608 90.6273L117.282 102.154C115.531 103.163 115.188 105.317 116.555 106.729C117.789 108.004 119.942 108.164 121.386 107.088L139.605 92.7884L137.608 90.6273Z" fill="#F7C6A4"/>
<path d="M94.8074 93.4369C98.7737 96.4648 102.919 100.558 113.884 106.631C115.046 107.274 117.247 108.457 119.46 107.908C120.487 107.653 121.205 107.103 121.65 106.676C121.571 106.071 121.36 105.117 120.728 104.075C119.922 102.745 118.838 101.941 118.225 101.546C111.844 96.1025 105.464 90.6588 99.0833 85.2148C97.182 83.7102 94.2764 83.8752 92.7349 85.5754C91.3001 87.1581 93.0095 92.0642 94.8074 93.4369Z" fill="#F7C6A4"/>
<path d="M118.225 101.546C114.148 98.3448 111.208 95.3835 109.268 93.2598C107.126 90.9148 104.929 88.194 100.988 84.4979C96.7628 80.5354 94.9418 79.5858 93.5176 80.096C92.5362 80.4475 90.882 81.7873 90.107 83.6871C90.0433 83.8433 89.9987 83.9654 89.9716 84.0396C88.5947 87.8131 93.0628 91.9 94.2191 93.204C98.7747 98.3427 115.371 107.975 117.356 108.569C117.356 108.569 119.263 109.219 122.077 107.341C124.891 105.464 140.696 98.6756 140.696 98.6756C140.696 98.6756 139.953 92.6675 136.863 91.05L118.225 101.546Z" fill="#FFB600"/>
<path d="M102.141 74.3173L98.4603 77.373L108.074 81.7469L108.859 79.209L102.141 74.3173Z" fill="#FFB600"/>
<path d="M108.859 79.209L111.356 72.4067L114.113 72.7646L112.072 80.4782L108.859 79.209Z" fill="#FFB600"/>
<path opacity="0.18" d="M118.225 101.546C114.148 98.3448 111.208 95.3835 109.268 93.2598C107.126 90.9148 104.929 88.194 100.988 84.4979C96.7628 80.5354 94.9418 79.5858 93.5176 80.096C92.5362 80.4475 90.882 81.7873 90.107 83.6871C90.0433 83.8433 89.9987 83.9654 89.9716 84.0396C88.5947 87.8131 93.0628 91.9 94.2191 93.204C98.7747 98.3427 115.371 107.975 117.356 108.569C117.356 108.569 119.263 109.219 122.077 107.341C124.891 105.464 140.696 98.6756 140.696 98.6756C140.696 98.6756 139.953 92.6675 136.863 91.05L118.225 101.546Z" fill="#F9F9F9"/>
<path opacity="0.1" d="M102.141 74.3173L98.4603 77.373L108.074 81.7469L108.859 79.209L102.141 74.3173Z" fill="#141414"/>
<path opacity="0.1" d="M108.859 79.209L111.356 72.4067L114.113 72.7646L112.072 80.4782L108.859 79.209Z" fill="#141414"/>
<path opacity="0.12" d="M169.451 76.1815C169.451 76.1815 170.19 96.9627 191.554 94.7502L169.451 76.1815Z" fill="black"/>
<path opacity="0.12" d="M130.285 69.3142L128.579 70.7294L131.462 74.3173L133.167 72.7853L130.285 69.3142Z" fill="black"/>
<path opacity="0.12" d="M135.526 75.5305L133.819 76.9457L136.702 80.5336L138.408 79.0017L135.526 75.5305Z" fill="black"/>
<path opacity="0.12" d="M140.107 81.0358L138.401 82.451L141.284 86.039L142.99 84.5069L140.107 81.0358Z" fill="black"/>
<path opacity="0.11" d="M153.126 113.624C153.126 113.624 159.625 117.812 164.969 112.613C170.312 107.414 178.833 97.015 178.833 97.015L188.365 96.1173C183.072 99.475 179.277 102.78 176.739 105.247C175.829 106.131 170.129 111.722 163.669 115.501C162.812 116.002 161.214 116.898 159.119 116.801C156.125 116.663 153.991 114.582 153.126 113.624Z" fill="white"/>
<path d="M176.896 88.8838C176.968 85.983 177.273 83.0619 178.099 80.2521C178.517 78.8521 179.073 77.484 179.822 76.2161C180.57 74.9509 181.521 73.7909 182.67 72.8565C183.243 72.3896 183.862 71.9794 184.515 71.6284C185.17 71.2811 185.863 71.0088 186.574 70.8021C187.998 70.3888 189.482 70.2605 190.941 70.2667C192.403 70.2692 193.851 70.3842 195.292 70.4596C196.732 70.5344 198.17 70.5742 199.592 70.445C202.441 70.2415 205.181 69.184 207.513 67.5448L208.373 66.9071C208.65 66.6817 208.916 66.4425 209.188 66.2109C209.321 66.0923 209.462 65.9815 209.59 65.8569L209.97 65.4782C210.221 65.2234 210.482 64.9784 210.726 64.7157L211.433 63.9067L211.787 63.5017L212.114 63.0746L212.769 62.2203C212.882 62.0805 212.981 61.9311 213.081 61.7815L213.382 61.3346C214.996 58.9557 216.312 56.379 217.462 53.7367L218.292 51.7388C218.559 51.0686 218.796 50.3863 219.049 49.7107L219.423 48.6946L219.759 47.6648L220.431 45.605L220.785 45.7119L220.132 47.7873L219.806 48.8252L219.441 49.8507C219.193 50.5327 218.962 51.2211 218.701 51.8982L217.886 53.9186C216.738 56.5863 215.419 59.1923 213.79 61.6121L213.486 62.0665C213.386 62.2186 213.285 62.3705 213.171 62.5132L212.508 63.3844L212.177 63.82L211.818 64.2344L211.099 65.0619C210.852 65.3309 210.586 65.583 210.33 65.8444L209.942 66.2332C209.811 66.3611 209.668 66.4757 209.531 66.5977C209.253 66.8365 208.981 67.0823 208.698 67.3148L207.816 67.9738C206.615 68.8173 205.314 69.5261 203.935 70.0409C202.561 70.5705 201.101 70.8755 199.64 70.9986C196.705 71.2555 193.804 70.8102 190.94 70.7913C189.508 70.7798 188.077 70.9013 186.715 71.2913C186.036 71.4863 185.374 71.7432 184.748 72.0719C184.125 72.4044 183.531 72.7948 182.981 73.2394C181.879 74.129 180.961 75.2384 180.233 76.4605C179.503 77.6846 178.958 79.0165 178.54 80.3857C177.702 83.13 177.367 86.0167 177.266 88.8948L176.896 88.8838Z" fill="#E2E2E2"/>
<path d="M179.407 90.7621C179.469 89.2491 179.606 87.7358 179.857 86.236C180.107 84.7369 180.464 83.2485 180.985 81.8075C181.512 80.371 182.212 78.9819 183.142 77.7412C183.259 77.5873 183.37 77.4277 183.493 77.2785L183.882 76.8441C184.014 76.7023 184.134 76.5481 184.278 76.4164L184.707 76.0204L184.923 75.8225C184.993 75.7546 185.067 75.691 185.147 75.6352L185.615 75.2844C185.922 75.0419 186.255 74.8366 186.591 74.6369C187.942 73.8421 189.489 73.3925 191.035 73.2427C192.585 73.0852 194.127 73.1852 195.638 73.331C197.151 73.4785 198.641 73.6825 200.128 73.7819C201.614 73.8854 203.098 73.8773 204.548 73.6604C205.998 73.4321 207.421 73.0227 208.774 72.4448L209.776 71.9769C210.107 71.8152 210.42 71.6183 210.744 71.441L211.226 71.1683L211.687 70.86L212.609 70.2425C215.005 68.4904 217.073 66.305 218.933 63.9656L219.619 63.0769L219.962 62.6323C220.075 62.4831 220.177 62.3254 220.285 62.1723L221.564 60.3221C222.352 59.0448 223.175 57.7869 223.889 56.4629L224.448 55.4833L224.728 54.9933L224.989 54.4929L226.028 52.4885C226.387 51.8258 226.691 51.1367 227.018 50.4579L227.995 48.4189L228.271 48.5387C227.094 51.3219 225.857 54.0871 224.411 56.751C223.719 58.1 222.91 59.3842 222.137 60.69L220.876 62.5873C220.769 62.7444 220.669 62.906 220.557 63.0594L220.217 63.5173L219.536 64.4333C217.698 66.8558 215.583 69.1008 213.122 70.9456L212.168 71.5946L211.689 71.9162L211.187 72.2031C210.85 72.3898 210.523 72.5954 210.177 72.7658L209.128 73.2598C207.708 73.8712 206.213 74.3085 204.681 74.5525C203.144 74.7777 201.591 74.7785 200.067 74.6677C198.542 74.5585 197.04 74.3552 195.55 74.1954C194.062 74.0371 192.575 73.9304 191.116 74.0654C189.661 74.1992 188.236 74.5871 186.966 75.2998C186.651 75.48 186.336 75.6654 186.047 75.8871L185.603 76.2064C185.527 76.2571 185.457 76.3152 185.39 76.3777L185.186 76.5596L184.776 76.9231C184.639 77.0437 184.524 77.1877 184.396 77.3189L184.022 77.7212C183.903 77.86 183.796 78.0098 183.682 78.1535C182.778 79.3123 182.083 80.635 181.541 82.0175C180.446 84.7902 179.966 87.7881 179.708 90.7796L179.407 90.7621Z" fill="#E2E2E2"/>
<path d="M182.033 92.6531C182.084 91.8631 182.142 91.0719 182.238 90.2839L182.312 89.6929L182.403 89.1042C182.459 88.7102 182.538 88.3206 182.612 87.9291C182.921 86.3675 183.371 84.8231 184.027 83.3508C184.686 81.8837 185.562 80.4881 186.706 79.31C187.846 78.1312 189.271 77.2006 190.855 76.6804C191.645 76.4187 192.465 76.2583 193.287 76.1814C194.109 76.1048 194.932 76.1162 195.742 76.1717C197.366 76.286 198.941 76.5821 200.496 76.8467C202.051 77.1129 203.589 77.3742 205.126 77.4512C205.894 77.4871 206.66 77.4989 207.418 77.415C207.797 77.3839 208.179 77.3637 208.553 77.2869L209.117 77.1927C209.304 77.1567 209.496 77.1419 209.679 77.0858L210.79 76.8069C210.978 76.7677 211.157 76.6987 211.338 76.6371L211.881 76.45L212.425 76.2633C212.606 76.2008 212.777 76.1119 212.954 76.0375L214.009 75.5714C214.354 75.4017 214.688 75.2064 215.028 75.0254C215.363 74.8354 215.714 74.6727 216.031 74.4489L217.005 73.8162C217.166 73.7096 217.331 73.6083 217.49 73.4975L217.956 73.1481C220.468 71.3196 222.709 69.1125 224.797 66.7729C228.908 62.0212 232.407 56.7325 235.658 51.3004C234.935 52.7079 234.224 54.1256 233.466 55.5185L232.284 57.5833L231.691 58.6154C231.491 58.9581 231.272 59.2894 231.063 59.6269L229.784 61.6379C229.578 61.9777 229.339 62.2958 229.114 62.6237L228.43 63.6019L227.745 64.5792C227.518 64.9062 227.259 65.2104 227.018 65.5273C226.524 66.1529 226.042 66.7881 225.539 67.4067L223.966 69.2152C223.711 69.5235 223.419 69.7981 223.14 70.0854L222.296 70.9404L221.874 71.3679C221.732 71.5096 221.577 71.6377 221.429 71.7733L220.531 72.5762C219.948 73.1296 219.29 73.5994 218.659 74.1002L218.182 74.4714C218.019 74.5898 217.846 74.696 217.678 74.8087L216.665 75.4758C216.336 75.7102 215.967 75.886 215.616 76.0877C215.259 76.2806 214.909 76.4869 214.546 76.6683L213.433 77.1694C213.246 77.2494 213.065 77.3435 212.872 77.4117L212.295 77.615L211.717 77.8177C211.524 77.8846 211.334 77.9583 211.133 78.0025L209.944 78.3071C209.747 78.3646 209.541 78.3812 209.34 78.4187L208.732 78.5162C208.33 78.5948 207.919 78.6158 207.51 78.6467C206.693 78.7304 205.871 78.7133 205.059 78.67C203.434 78.5729 201.844 78.3064 200.286 78.0085C198.728 77.7129 197.191 77.3969 195.656 77.261C194.126 77.1273 192.591 77.1769 191.148 77.6073C190.427 77.82 189.735 78.1273 189.085 78.5142L188.612 78.8287L188.375 78.9858C188.295 79.0364 188.217 79.0904 188.146 79.1537L187.705 79.5139L187.483 79.6935C187.412 79.7567 187.347 79.8262 187.278 79.8923C186.167 80.9396 185.28 82.2279 184.578 83.6133C183.865 84.9973 183.353 86.4887 182.948 88.0079C182.85 88.3889 182.746 88.7691 182.665 89.155L182.536 89.7323L182.424 90.3133C182.266 91.0873 182.147 91.8694 182.033 92.6531Z" fill="#E2E2E2"/>
<path d="M58.7845 148.768C57.9176 148.095 56.4774 147.818 55.4241 147.767C54.8706 147.74 54.8022 147.854 54.5293 147.452C54.2758 147.079 54.2687 146.19 54.1756 145.742C53.9399 144.606 53.7041 143.47 53.4685 142.334C55.9693 140.789 57.8435 138.26 58.5943 135.418C59.3451 132.576 58.9645 129.451 57.5531 126.872C57.1033 126.05 56.3839 125.195 55.4483 125.246C54.7483 125.285 54.1876 125.831 53.7608 126.387C52.4074 128.15 51.6991 130.349 51.4849 132.562C51.2708 134.774 51.5281 137.008 51.9556 139.189C51.9964 139.397 52.0381 139.616 51.9687 139.817C51.8937 140.034 51.7033 140.187 51.5216 140.327C48.886 142.361 46.0493 144.412 44.6556 147.436C43.8285 149.23 43.5808 151.286 43.9578 153.225C44.3464 155.224 45.4445 157.136 47.1643 158.225C48.291 158.939 49.6168 159.271 50.9339 159.48C52.6012 159.746 54.326 159.831 55.9643 159.424C56.1526 160.42 56.3131 161.423 56.4368 162.43C56.5345 163.224 56.6333 164.033 56.6695 164.838C56.6812 165.096 56.6608 165.346 56.6608 165.602C56.6091 166.128 56.4039 166.646 56.121 167.089C55.9949 167.286 55.8504 167.472 55.6897 167.642C55.2026 168.157 54.5895 168.538 53.9433 168.821C53.4831 169.022 52.987 169.146 52.4847 169.17C52.2322 169.182 51.9785 169.169 51.7289 169.128C51.7087 169.124 51.6851 169.12 51.6639 169.117C52.6624 168.577 53.3487 167.534 53.3487 166.32C53.3487 164.557 51.9199 163.129 50.1576 163.129C48.3953 163.129 46.9666 164.557 46.9666 166.32C46.9666 166.854 47.1103 167.35 47.3424 167.792L47.3239 167.787C47.3691 167.874 47.4226 167.949 47.4718 168.031C47.4916 168.062 47.5081 168.095 47.5289 168.125C49.201 170.766 52.8678 170.622 52.8678 170.622C53.3145 170.642 53.7883 170.547 54.217 170.437C55.1754 170.191 56.0749 169.711 56.7691 169C57.1004 168.661 57.382 168.275 57.611 167.861C57.7989 167.521 57.9651 167.164 58.0528 166.784C58.1747 166.257 58.1364 165.718 58.0853 165.184C57.967 163.946 57.7374 162.721 57.4929 161.498C57.4349 161.209 57.3772 160.919 57.3193 160.63C57.216 160.114 57.1126 159.597 57.0093 159.08C57.0041 159.054 56.9989 159.028 56.9937 159.002C56.9937 159.002 60.0639 158.106 60.7035 155.42C60.7035 155.42 61.9187 151.198 58.7845 148.768ZM53.2833 129.615C54.536 127.926 57.2418 128.676 57.4351 130.769C57.4351 130.769 57.8162 133.77 55.2026 136.743C54.7778 137.322 53.8743 138.205 52.821 139.154L52.5066 137.662C52.4839 137.552 52.4689 137.274 52.4518 137.163C52.1739 135.374 52.1272 132.809 52.296 131.815C52.5195 130.497 53.2833 129.615 53.2833 129.615ZM48.2139 157.092C46.9076 155.984 45.9566 154.388 45.8745 152.677C45.7801 150.711 46.8089 148.861 48.0416 147.326C49.2943 145.767 50.7912 144.406 52.4612 143.305C52.7478 144.546 53.0345 145.787 53.321 147.027C53.3814 147.289 53.4397 147.573 53.3276 147.816C53.2053 148.082 52.9185 148.221 52.6616 148.361C50.776 149.389 49.6203 151.451 49.5818 153.58C49.5672 154.383 49.6881 155.215 50.116 155.895C50.5437 156.575 51.3274 157.071 52.1262 156.985C51.7828 157.022 51.2335 155.539 51.1572 155.286C50.9445 154.582 50.901 153.823 51.0356 153.099C51.3212 151.564 52.4833 150.511 54.0533 150.364C54.6176 152.907 55.272 155.927 55.8035 158.575C55.8062 158.588 55.8087 158.601 55.8112 158.614C53.2422 159.432 50.2697 158.837 48.2139 157.092ZM56.7881 158.136L56.5676 156.978C56.5624 156.946 56.5626 156.914 56.556 156.882L55.1749 150.326C56.0537 150.373 58.5131 150.802 59.1503 154.095C59.1503 154.095 59.6976 156.572 56.7881 158.136Z" fill="#FFB600"/>
<path d="M176.378 155.027V136.954C176.378 136.873 176.312 136.808 176.232 136.808H175.585C175.504 136.808 175.439 136.873 175.439 136.954V153.558C174.484 153.083 173.025 153.17 171.65 153.885C169.74 154.878 168.721 156.702 169.375 157.959C170.028 159.215 172.107 159.429 174.016 158.436C175.611 157.607 176.385 156.196 176.378 155.027Z" fill="#FFB600"/>
<path d="M206.122 67.4792V81.1508C206.122 81.2121 206.172 81.2617 206.233 81.2617H206.722C206.783 81.2617 206.833 81.2121 206.833 81.1508V68.59C207.555 68.9494 208.659 68.884 209.699 68.3433C211.144 67.5921 211.914 66.2123 211.42 65.2615C210.926 64.3106 209.354 64.149 207.909 64.9002C206.703 65.5271 206.117 66.5948 206.122 67.4792Z" fill="#FFB600"/>
<path d="M192.647 63.5829V63.5892L186.585 64.8242C186.538 64.8338 186.503 64.8754 186.503 64.9238V65.7211V66.53V72.5638C186.06 72.3433 185.383 72.3833 184.745 72.7152C183.859 73.1761 183.387 74.0223 183.69 74.6056C183.993 75.1888 184.957 75.2881 185.844 74.8273C186.583 74.4427 187.069 73.7879 187.066 73.2454V66.4894C187.066 66.4469 187.096 66.4102 187.137 66.4017L192.54 65.3054C192.595 65.2942 192.647 65.3365 192.647 65.3931V71.0283C192.204 70.8079 191.527 70.8479 190.889 71.1798C190.002 71.6406 189.53 72.4869 189.833 73.0702C190.137 73.6536 191.101 73.7527 191.987 73.2919C192.727 72.9073 193.176 72.2546 193.129 71.7098H193.133V63.6133C193.133 63.5496 193.075 63.5015 193.013 63.5133L192.647 63.5829Z" fill="#FFB600"/>
<path d="M225.84 33.8606C225.038 33.4686 224.517 32.7123 224.231 31.8865C224.113 31.544 224.031 31.189 223.979 30.8304C223.955 30.67 223.945 29.584 223.935 29.4221C223.927 29.2892 223.938 29.1315 223.892 29.0052C223.804 28.765 223.298 28.6252 223.061 28.694C222.878 28.7473 222.877 28.9833 222.888 29.1371C222.904 29.3725 222.905 30.529 222.905 30.7656C222.903 31.2417 222.901 31.7179 222.9 32.1942C222.898 32.8171 222.896 33.44 222.893 34.0629C222.891 34.7806 222.889 35.4983 222.886 36.2163C222.884 36.9769 222.881 37.7377 222.878 38.4983C222.876 39.25 222.873 40.0019 222.871 40.7535C222.868 41.4446 222.866 42.1354 222.864 42.8265C222.862 43.4046 222.86 43.9829 222.858 44.5611C222.856 44.9746 222.855 45.3883 222.854 45.8019C222.853 45.999 222.852 46.196 222.851 46.3931C222.851 46.3952 222.849 46.4202 222.851 46.4213C221.84 45.9181 220.294 46.0094 218.838 46.7667C216.815 47.8188 215.736 49.7508 216.428 51.0821C217.12 52.4135 218.87 52.7046 220.893 51.6527C222.582 50.7746 223.69 49.2796 223.683 48.0413V35.8994C226.152 35.824 228.441 38.8121 228.441 38.8121C230.746 42.8708 227.008 46.9146 227.008 46.9146C226.761 47.6813 227.267 47.5194 227.267 47.5194C228.589 46.7229 230.124 44.2092 230.124 44.2092C233.659 38.3023 225.84 33.8606 225.84 33.8606Z" fill="#FFB600"/>
<path d="M61.5323 81.2609H60.0021H51.1798V82.8584V83.1804V93.3985C50.4877 93.0544 49.4304 93.1169 48.4342 93.635C47.0502 94.3546 46.3123 95.6763 46.7858 96.5871C47.2594 97.4979 48.7652 97.6527 50.1492 96.9331C51.3042 96.3325 52.0623 95.3098 52.0571 94.4627V83.4915H60.0023H60.7731V93.3738C60.081 93.0296 59.0237 93.0921 58.0275 93.6102C56.6435 94.3298 55.9056 95.6515 56.3792 96.5623C56.8527 97.4731 58.3585 97.6279 59.7425 96.9083C60.8975 96.3077 61.5996 95.2883 61.5258 94.4379H61.5325V83.4917H70.8633V93.399C70.1712 93.0548 69.1139 93.1173 68.1177 93.6354C66.7337 94.355 65.9958 95.6767 66.4694 96.5875C66.9429 97.4983 68.4487 97.6531 69.8327 96.9335C70.9877 96.3329 71.7458 95.3102 71.7406 94.4631V83.4919V81.9179V81.2617H61.5323V81.2609Z" fill="#FFB600"/>
<path d="M153.097 53.4458C153.06 53.3289 153.015 53.2139 152.968 53.1002C153.36 52.0948 153.149 51.2856 153.149 51.2856C153.104 51.145 153.048 51.0073 152.989 50.871C153.352 49.8912 153.149 49.1112 153.149 49.1112C152.646 47.5433 151.194 46.2421 149.796 45.3748C148.647 44.6614 148.128 44.4767 147.788 43.3908C147.778 43.3117 147.762 43.23 147.736 43.1579C147.73 43.1425 147.72 43.1294 147.71 43.116C147.71 43.1142 147.709 43.1125 147.709 43.1106C147.709 43.1114 147.708 43.1121 147.708 43.1131C147.604 42.9714 147.298 42.9344 147.138 42.9812C147.001 43.021 147.008 43.1825 147.008 43.3125C147.008 43.3408 147.009 43.3706 147.009 43.3996L146.982 56.2144C146.226 55.8383 145.07 55.9421 143.981 56.5083C142.469 57.2948 141.662 58.7392 142.18 59.7346C142.697 60.73 144.343 60.8994 145.855 60.1129C147.118 59.4564 147.609 58.3725 147.603 57.4466V49.9979C147.96 50.2079 147.995 50.2498 148.553 50.5054C150.552 51.4206 152.885 53.8683 152.071 56.0769C151.963 56.3708 151.629 56.9244 151.483 57.2004C151.15 57.8277 152.009 57.6585 152.353 57.1523C153.121 56.0223 153.509 54.731 153.097 53.4458ZM148.605 46.1708C150.694 46.8562 152.091 47.7292 152.407 49.8217C152.407 49.8217 152.408 49.8402 152.41 49.8719C151.725 48.9317 150.748 48.1396 149.796 47.5487C148.856 46.9654 148.302 46.6821 147.941 45.9981C148.094 46.0435 148.289 46.0673 148.605 46.1708ZM149.745 49.7092C149.01 49.2531 148.258 48.6881 147.696 48.0494C147.907 48.2169 148.104 48.1808 148.605 48.3452C150.694 49.0306 152.091 49.9035 152.408 51.996C152.408 51.996 152.409 52.0396 152.413 52.11C151.726 51.1358 150.722 50.316 149.745 49.7092Z" fill="#FFB600"/>
<path d="M163.348 110.391L163.826 114.386L166.539 114.696L163.826 115.006L163.348 119.001L162.869 115.006L160.156 114.696L162.869 114.386L163.348 110.391Z" fill="white"/>
<path d="M138.887 74.3868L139.365 78.3823L142.078 78.6918L139.365 79.0016L138.887 82.9969L138.408 79.0016L135.695 78.6918L138.408 78.3823L138.887 74.3868Z" fill="white"/>
<path d="M188.243 95.1617L187.345 99.0842L189.794 100.291L187.135 99.6671L185.337 103.266L186.235 99.3442L183.785 98.1369L186.444 98.7613L188.243 95.1617Z" fill="white"/>
<path opacity="0.67" d="M103.403 55.5212L104.041 58.8283L106.324 58.9252L104.077 59.3456L103.916 62.7096L103.279 59.4025L100.995 59.3058L103.242 58.8854L103.403 55.5212Z" fill="white"/>
</svg>
